<?xml version="1.0" encoding="utf-8"?>
<!-- Generator: Adobe Illustrator 16.0.0, SVG Export Plug-In . SVG Version: 6.00 Build 0)  -->
<!DOCTYPE svg PUBLIC "-//W3C//DTD SVG 1.1//EN" "http://www.w3.org/Graphics/SVG/1.1/DTD/svg11.dtd">
<svg version="1.1" id="Ebene_1" xmlns="http://www.w3.org/2000/svg" xmlns:xlink="http://www.w3.org/1999/xlink" x="0px" y="0px"
	 width="418.667px" height="139.333px" viewBox="0 0 418.667 139.333" enable-background="new 0 0 418.667 139.333"
	 xml:space="preserve">
<rect x="20.667" y="103.134" fill="#689F2A" width="19.198" height="19.199"/>
<rect x="20.667" y="76.245" fill="#9D00DB" width="19.198" height="19.199"/>
<rect x="20.667" y="49.782" fill="#00A0DB" width="19.198" height="19.199"/>
<rect x="20.667" y="22.467" fill="#DD5A00" width="19.198" height="19.199"/>
<path fill="#FFFFFF" d="M76.811,67.333c-3.328,0-6.347-0.648-9.056-1.951c-2.71-1.301-5.035-3.028-6.976-5.184
	c-1.942-2.154-3.446-4.619-4.512-7.393c-1.067-2.773-1.6-5.609-1.6-8.512c0-3.029,0.565-5.931,1.696-8.705
	c1.13-2.772,2.688-5.226,4.672-7.359c1.984-2.133,4.341-3.829,7.072-5.088c2.73-1.258,5.696-1.889,8.896-1.889
	c3.285,0,6.282,0.672,8.992,2.017c2.709,1.344,5.024,3.104,6.944,5.28s3.413,4.65,4.48,7.424c1.066,2.773,1.6,5.59,1.6,8.447
	c0,3.03-0.555,5.92-1.664,8.672c-1.11,2.753-2.646,5.186-4.608,7.297c-1.963,2.111-4.31,3.798-7.04,5.057
	C82.976,66.704,80.011,67.333,76.811,67.333z M63.626,44.294c0,1.963,0.298,3.862,0.896,5.696c0.597,1.836,1.461,3.457,2.592,4.864
	c1.13,1.408,2.517,2.539,4.16,3.393c1.642,0.854,3.509,1.28,5.6,1.28c2.133,0,4.021-0.438,5.664-1.313
	c1.642-0.873,3.029-2.037,4.16-3.487c1.13-1.449,1.984-3.082,2.56-4.896c0.576-1.813,0.864-3.658,0.864-5.537
	c0-1.961-0.31-3.86-0.928-5.695c-0.619-1.834-1.494-3.456-2.624-4.864c-1.131-1.408-2.518-2.528-4.16-3.36
	c-1.643-0.832-3.488-1.248-5.536-1.248c-2.134,0-4.032,0.438-5.696,1.313c-1.664,0.875-3.051,2.027-4.16,3.456
	c-1.11,1.43-1.952,3.051-2.528,4.864C63.915,40.572,63.626,42.417,63.626,44.294z"/>
<path fill="#FFFFFF" d="M141.371,61.895c-3.627,3.627-7.851,5.438-12.672,5.438c-2.987,0-5.792-0.596-8.416-1.791
	c-2.624-1.193-4.907-2.838-6.848-4.928c-1.942-2.091-3.478-4.555-4.608-7.393c-1.131-2.838-1.696-5.898-1.696-9.184
	c0-3.115,0.565-6.049,1.696-8.801c1.13-2.752,2.688-5.162,4.672-7.232c1.984-2.068,4.32-3.711,7.008-4.928
	c2.688-1.216,5.61-1.824,8.768-1.824c4.266,0,7.925,0.896,10.976,2.688c3.05,1.792,5.344,4.203,6.88,7.231l-6.592,4.865
	c-1.152-2.262-2.763-3.99-4.832-5.185c-2.07-1.194-4.32-1.792-6.752-1.792c-1.92,0-3.68,0.406-5.28,1.216
	c-1.6,0.812-2.966,1.92-4.096,3.328c-1.131,1.408-2.006,3.03-2.624,4.864c-0.619,1.835-0.928,3.775-0.928,5.824
	c0,2.133,0.341,4.127,1.024,5.984c0.682,1.855,1.621,3.467,2.816,4.832c1.194,1.365,2.613,2.441,4.256,3.23
	c1.642,0.791,3.424,1.186,5.344,1.186c4.394,0,8.362-2.07,11.904-6.209v-3.199h-9.152v-6.464h16.448v23.36h-7.296V61.895z"/>
<path fill="#FFFFFF" d="M195.834,67.333v-30.08l-11.712,22.398h-4.801l-11.711-22.398v30.08h-8.832v-45.44h9.473l13.439,25.856
	l13.567-25.856h9.408v45.44H195.834z"/>
<path fill="#FFFFFF" d="M225.138,38.213v29.12h-8.832v-45.44h6.849l23.68,29.824v-29.76h8.832v45.376h-7.168L225.138,38.213z"/>
<path fill="#FFFFFF" d="M266.93,67.333v-45.44h20.097c2.09,0,4.021,0.438,5.791,1.312c1.771,0.875,3.297,2.027,4.576,3.457
	c1.28,1.43,2.282,3.051,3.009,4.863c0.725,1.814,1.088,3.639,1.088,5.473c0,2.943-0.736,5.621-2.208,8.031
	c-1.473,2.41-3.467,4.15-5.984,5.217l10.368,17.088h-9.92l-9.279-15.231h-8.704v15.231H266.93z M275.762,44.356h11.071
	c0.811,0,1.568-0.191,2.271-0.576c0.704-0.383,1.313-0.905,1.824-1.567c0.512-0.661,0.917-1.44,1.216-2.336
	c0.298-0.896,0.448-1.856,0.448-2.88c0-1.066-0.172-2.049-0.513-2.944c-0.342-0.896-0.8-1.674-1.376-2.336
	c-0.576-0.661-1.237-1.173-1.983-1.536c-0.747-0.361-1.504-0.544-2.271-0.544h-10.688L275.762,44.356L275.762,44.356z"/>
<path fill="#FFFFFF" d="M327.083,22.021h8.128l5.12,15.04l5.12-15.04h8.19l-7.742,20.672l5.76,14.528l12.863-35.328h9.601
	l-18.496,45.44h-7.424l-7.872-19.071l-7.872,19.071h-7.424l-18.368-45.44h9.473l12.929,35.328l5.632-14.528L327.083,22.021z"/>
</svg>
