<?xml version="1.0" encoding="utf-8"?>
<!-- Generator: Adobe Illustrator 16.0.0, SVG Export Plug-In . SVG Version: 6.00 Build 0)  -->
<!DOCTYPE svg PUBLIC "-//W3C//DTD SVG 1.1//EN" "http://www.w3.org/Graphics/SVG/1.1/DTD/svg11.dtd">
<svg version="1.1" id="Ebene_1" xmlns="http://www.w3.org/2000/svg" xmlns:xlink="http://www.w3.org/1999/xlink" x="0px" y="0px"
	 width="1190px" height="149.333px" viewBox="14.5 0 1190 149.333" enable-background="new 14.5 0 1190 149.333"
	 xml:space="preserve">
<g>
	<path fill="#FFFFFF" d="M78.049,75.039c-3.328,0-6.347-0.648-9.056-1.951c-2.71-1.301-5.035-3.028-6.976-5.184
		c-1.942-2.154-3.446-4.619-4.512-7.393c-1.067-2.773-1.6-5.609-1.6-8.512c0-3.029,0.565-5.93,1.696-8.704
		c1.13-2.773,2.688-5.226,4.672-7.36c1.984-2.133,4.341-3.829,7.072-5.088c2.73-1.258,5.696-1.888,8.896-1.888
		c3.285,0,6.282,0.672,8.992,2.016c2.709,1.344,5.024,3.104,6.944,5.28c1.92,2.176,3.413,4.651,4.48,7.424
		c1.066,2.774,1.6,5.59,1.6,8.448c0,3.03-0.555,5.92-1.664,8.672c-1.11,2.752-2.646,5.185-4.608,7.296
		c-1.963,2.111-4.31,3.798-7.04,5.057C84.214,74.41,81.249,75.039,78.049,75.039z M64.865,52c0,1.963,0.298,3.862,0.896,5.696
		c0.597,1.836,1.461,3.457,2.592,4.864c1.13,1.408,2.517,2.539,4.16,3.392c1.642,0.854,3.509,1.281,5.6,1.281
		c2.133,0,4.021-0.438,5.664-1.313c1.642-0.874,3.029-2.037,4.16-3.488c1.13-1.449,1.984-3.082,2.56-4.896
		c0.576-1.813,0.864-3.657,0.864-5.536c0-1.962-0.31-3.861-0.928-5.696c-0.619-1.834-1.494-3.456-2.624-4.864
		c-1.131-1.408-2.518-2.528-4.16-3.36c-1.643-0.832-3.488-1.248-5.536-1.248c-2.134,0-4.032,0.438-5.696,1.312
		c-1.664,0.875-3.051,2.027-4.16,3.456c-1.11,1.43-1.952,3.051-2.528,4.864C65.153,48.278,64.865,50.123,64.865,52z"/>
	<path fill="#FFFFFF" d="M107.041,74.72V29.28h19.264c2.09,0,4.021,0.438,5.792,1.312c1.77,0.875,3.296,2.027,4.576,3.456
		c1.28,1.43,2.282,3.051,3.008,4.864c0.725,1.814,1.088,3.638,1.088,5.472c0,1.92-0.342,3.787-1.024,5.6
		c-0.683,1.814-1.643,3.424-2.88,4.833c-1.238,1.407-2.731,2.538-4.48,3.391c-1.75,0.854-3.67,1.281-5.76,1.281h-10.752V74.72
		H107.041z M115.873,51.744h10.24c1.621,0,2.976-0.661,4.064-1.984c1.088-1.322,1.632-3.114,1.632-5.376
		c0-1.152-0.171-2.186-0.512-3.104c-0.342-0.917-0.79-1.696-1.344-2.336c-0.555-0.64-1.206-1.12-1.952-1.44
		c-0.747-0.32-1.504-0.48-2.272-0.48h-9.856V51.744L115.873,51.744z"/>
	<path fill="#FFFFFF" d="M178.464,66.976v7.744h-31.552V29.28h30.976v7.744h-22.144v10.944h19.136v7.168h-19.136v11.84H178.464z"/>
	<path fill="#FFFFFF" d="M194.208,45.6v29.12h-8.832V29.28h6.848l23.68,29.824v-29.76h8.832V74.72h-7.168L194.208,45.6z"/>
	<path fill="#FFFFFF" d="M281.118,69.6c-3.627,3.627-7.851,5.438-12.672,5.438c-2.987,0-5.792-0.596-8.416-1.791
		c-2.624-1.193-4.907-2.837-6.848-4.928c-1.942-2.091-3.478-4.555-4.608-7.393c-1.131-2.837-1.696-5.898-1.696-9.184
		c0-3.114,0.565-6.048,1.696-8.8c1.13-2.752,2.688-5.162,4.672-7.232c1.984-2.069,4.32-3.712,7.008-4.928
		c2.688-1.216,5.61-1.824,8.768-1.824c4.266,0,7.925,0.896,10.976,2.688c3.05,1.792,5.344,4.203,6.88,7.232l-6.592,4.864
		c-1.152-2.261-2.763-3.989-4.832-5.184c-2.07-1.194-4.32-1.792-6.752-1.792c-1.92,0-3.68,0.406-5.28,1.216
		c-1.6,0.811-2.966,1.92-4.096,3.328c-1.131,1.408-2.006,3.03-2.624,4.864c-0.619,1.835-0.928,3.776-0.928,5.824
		c0,2.134,0.341,4.128,1.024,5.985c0.682,1.855,1.621,3.467,2.816,4.832c1.194,1.365,2.613,2.442,4.256,3.231
		c1.642,0.79,3.424,1.185,5.344,1.185c4.394,0,8.362-2.07,11.904-6.209v-3.199h-9.152V51.36h16.448v23.36h-7.296V69.6z"/>
	<path fill="#FFFFFF" d="M315.358,75.039c-3.328,0-6.347-0.648-9.056-1.951c-2.71-1.301-5.035-3.028-6.976-5.184
		c-1.942-2.154-3.446-4.619-4.512-7.393c-1.067-2.773-1.6-5.609-1.6-8.512c0-3.029,0.565-5.93,1.696-8.704
		c1.13-2.773,2.688-5.226,4.672-7.36c1.984-2.133,4.341-3.829,7.072-5.088c2.73-1.258,5.696-1.888,8.896-1.888
		c3.285,0,6.282,0.672,8.992,2.016c2.709,1.344,5.024,3.104,6.944,5.28c1.92,2.176,3.413,4.651,4.48,7.424
		c1.066,2.774,1.6,5.59,1.6,8.448c0,3.03-0.555,5.92-1.664,8.672c-1.11,2.752-2.646,5.185-4.608,7.296
		c-1.963,2.111-4.31,3.798-7.04,5.057C321.523,74.41,318.558,75.039,315.358,75.039z M302.173,52c0,1.963,0.298,3.862,0.896,5.696
		c0.597,1.836,1.461,3.457,2.592,4.864c1.13,1.408,2.517,2.539,4.16,3.392c1.642,0.854,3.509,1.281,5.6,1.281
		c2.133,0,4.021-0.438,5.664-1.313c1.642-0.874,3.029-2.037,4.16-3.488c1.13-1.449,1.984-3.082,2.56-4.896
		c0.576-1.813,0.864-3.657,0.864-5.536c0-1.962-0.31-3.861-0.928-5.696c-0.619-1.834-1.494-3.456-2.624-4.864
		c-1.131-1.408-2.518-2.528-4.16-3.36c-1.643-0.832-3.488-1.248-5.536-1.248c-2.134,0-4.032,0.438-5.696,1.312
		c-1.664,0.875-3.051,2.027-4.16,3.456c-1.11,1.43-1.952,3.051-2.528,4.864C302.462,48.278,302.173,50.123,302.173,52z"/>
	<path fill="#FFFFFF" d="M347.359,29.28l12.288,34.369l12.16-34.369h9.28l-17.728,45.44h-7.424l-17.856-45.44H347.359z"/>
	<path fill="#FFFFFF" d="M417.502,66.976v7.744H385.95V29.28h30.976v7.744h-22.144v10.944h19.136v7.168h-19.136v11.84H417.502z"/>
	<path fill="#FFFFFF" d="M424.414,74.72V29.28h20.096c2.09,0,4.021,0.438,5.792,1.312c1.77,0.875,3.296,2.027,4.576,3.456
		c1.28,1.43,2.282,3.051,3.008,4.864c0.725,1.814,1.088,3.638,1.088,5.472c0,2.944-0.736,5.622-2.208,8.032
		c-1.472,2.41-3.467,4.15-5.984,5.216L461.15,74.72h-9.92l-9.28-15.231h-8.704V74.72H424.414z M433.246,51.744h11.072
		c0.81,0,1.568-0.192,2.272-0.576c0.704-0.384,1.312-0.906,1.824-1.568c0.512-0.661,0.917-1.44,1.216-2.336
		c0.298-0.896,0.448-1.856,0.448-2.88c0-1.066-0.171-2.048-0.512-2.944c-0.342-0.896-0.8-1.674-1.376-2.336
		c-0.576-0.661-1.238-1.173-1.984-1.536c-0.747-0.362-1.504-0.544-2.272-0.544h-10.688V51.744z"/>
	<path fill="#FFFFFF" d="M475.805,45.6v29.12h-8.832V29.28h6.849l23.68,29.824v-29.76h8.832V74.72h-7.168L475.805,45.6z"/>
	<path fill="#FFFFFF" d="M552.86,74.72V44.64l-11.713,22.399h-4.8L524.636,44.64v30.08h-8.832V29.28h9.473l13.439,25.856
		l13.568-25.856h9.408v45.44H552.86z"/>
	<path fill="#FFFFFF" d="M602.716,66.976v7.744h-31.552V29.28h30.976v7.744h-22.144v10.944h19.136v7.168h-19.136v11.84H602.716z"/>
	<path fill="#FFFFFF" d="M618.46,45.6v29.12h-8.832V29.28h6.848l23.681,29.824v-29.76h8.832V74.72h-7.168L618.46,45.6z"/>
	<path fill="#FFFFFF" d="M692.442,37.024h-14.527V74.72h-8.77V37.024h-14.526V29.28h37.823V37.024L692.442,37.024z"/>
	<path fill="#FFFFFF" d="M748.697,74.72V44.64l-11.712,22.399h-4.801L720.474,44.64v30.08h-8.832V29.28h9.473l13.439,25.856
		l13.567-25.856h9.408v45.44H748.697z"/>
	<path fill="#FFFFFF" d="M779.929,29.28h7.809l17.279,45.44h-9.088l-4.224-11.328h-15.872l-4.16,11.328h-9.088L779.929,29.28z
		 M790.104,57.184l-6.271-17.856l-6.528,17.856H790.104z"/>
	<path fill="#FFFFFF" d="M818.841,45.6v29.12h-8.832V29.28h6.848l23.681,29.824v-29.76h8.832V74.72h-7.168L818.841,45.6z"/>
	<path fill="#FFFFFF" d="M858.84,74.72V29.28h8.832v45.44H858.84z"/>
	<path fill="#FFFFFF" d="M877.144,74.72V29.28h30.527v7.744h-21.695v11.712h18.048v7.168h-18.048V74.72H877.144z"/>
	<path fill="#FFFFFF" d="M945.431,66.976v7.744h-31.552V29.28h30.976v7.744h-22.144v10.944h19.136v7.168h-19.136v11.84H945.431z"/>
	<path fill="#FFFFFF" d="M979.454,41.184c-0.299-0.298-0.843-0.704-1.632-1.216c-0.79-0.512-1.75-1.013-2.88-1.504
		c-1.132-0.49-2.357-0.906-3.681-1.248c-1.323-0.341-2.667-0.512-4.032-0.512c-2.432,0-4.245,0.448-5.439,1.344
		s-1.792,2.155-1.792,3.776c0,0.939,0.225,1.718,0.673,2.336c0.447,0.619,1.098,1.163,1.951,1.632
		c0.854,0.47,1.931,0.896,3.231,1.28c1.302,0.384,2.806,0.79,4.513,1.216c2.219,0.598,4.233,1.238,6.048,1.92
		c1.813,0.683,3.35,1.536,4.607,2.56c1.259,1.023,2.229,2.251,2.912,3.68c0.683,1.431,1.023,3.19,1.023,5.28
		c0,2.433-0.459,4.513-1.376,6.24c-0.918,1.728-2.154,3.126-3.712,4.192c-1.559,1.066-3.351,1.846-5.376,2.336
		c-2.026,0.49-4.149,0.736-6.367,0.736c-3.414,0-6.784-0.513-10.112-1.537c-3.328-1.023-6.314-2.474-8.96-4.352l3.903-7.616
		c0.385,0.384,1.077,0.886,2.08,1.505c1.002,0.618,2.187,1.237,3.553,1.855c1.364,0.619,2.88,1.142,4.544,1.568
		c1.664,0.426,3.37,0.64,5.12,0.64c4.863,0,7.296-1.558,7.296-4.673c0-0.98-0.278-1.813-0.832-2.495
		c-0.556-0.683-1.345-1.28-2.368-1.792s-2.262-0.981-3.712-1.408c-1.451-0.426-3.071-0.896-4.863-1.408
		c-2.177-0.597-4.063-1.248-5.664-1.951c-1.601-0.705-2.935-1.537-4-2.497c-1.066-0.96-1.867-2.069-2.399-3.328
		c-0.534-1.258-0.801-2.762-0.801-4.512c0-2.304,0.427-4.352,1.28-6.144c0.853-1.792,2.036-3.285,3.552-4.48
		c1.515-1.194,3.273-2.101,5.28-2.72c2.005-0.618,4.159-0.928,6.464-0.928c3.2,0,6.145,0.502,8.832,1.504
		c2.688,1.003,5.033,2.187,7.04,3.552L979.454,41.184z"/>
	<path fill="#FFFFFF" d="M1025.278,37.024h-14.527V74.72h-8.77V37.024h-14.526V29.28h37.823V37.024L1025.278,37.024z"/>
	<path fill="#FFFFFF" d="M1052.31,45.6v29.12h-8.832V29.28h6.849l23.68,29.824v-29.76h8.832V74.72h-7.168L1052.31,45.6z"/>
	<path fill="#FFFFFF" d="M1092.309,74.72V29.28h20.097c2.09,0,4.021,0.438,5.791,1.312c1.771,0.875,3.297,2.027,4.576,3.456
		c1.28,1.43,2.282,3.051,3.009,4.864c0.725,1.814,1.088,3.638,1.088,5.472c0,2.944-0.736,5.622-2.208,8.032
		c-1.473,2.41-3.467,4.15-5.984,5.216l10.368,17.088h-9.92l-9.279-15.231h-8.704V74.72H1092.309z M1101.141,51.744h11.071
		c0.811,0,1.568-0.192,2.271-0.576c0.704-0.384,1.313-0.906,1.824-1.568c0.512-0.661,0.917-1.44,1.216-2.336
		c0.298-0.896,0.448-1.856,0.448-2.88c0-1.066-0.172-2.048-0.513-2.944c-0.342-0.896-0.8-1.674-1.376-2.336
		c-0.576-0.661-1.237-1.173-1.983-1.536c-0.747-0.362-1.504-0.544-2.271-0.544h-10.688L1101.141,51.744L1101.141,51.744z"/>
	<path fill="#FFFFFF" d="M1149.46,29.408h8.128l5.12,15.04l5.12-15.04h8.19l-7.742,20.672l5.76,14.528l12.863-35.328h9.601
		l-18.496,45.44h-7.424l-7.872-19.071l-7.872,19.071h-7.424l-18.368-45.44h9.473l12.929,35.328l5.632-14.528L1149.46,29.408z"/>
</g>
<g>
	<path fill="#FFFFFF" d="M55.013,126.385l1.934-0.281V111.42l-1.969-0.293v-1.301h12.797l0.246,4.102h-1.699l-0.773-2.684H59.7
		v6.727h4.078l0.469-1.992h1.441v5.59h-1.441l-0.469-2.051H59.7v6.586l3.563,0.281v1.277h-8.25V126.385z"/>
	<path fill="#FFFFFF" d="M70.469,115.698l-1.301-0.434v-1.137l3.469-0.352h0.012l0.492,0.316v8.273c0,0.641,0.033,1.186,0.1,1.635
		s0.188,0.814,0.363,1.096s0.416,0.484,0.721,0.609s0.695,0.188,1.172,0.188c0.344,0,0.67-0.039,0.979-0.117s0.592-0.176,0.85-0.293
		s0.492-0.242,0.703-0.375s0.387-0.258,0.527-0.375v-9.023l-1.676-0.457v-1.137l3.703-0.34h0.023l0.621,0.316v11.988h1.406v1.172
		c-0.273,0.087-0.605,0.178-0.996,0.275s-0.832,0.146-1.324,0.146c-0.484,0-0.85-0.092-1.096-0.275s-0.369-0.51-0.369-0.979v-0.609
		c-0.211,0.211-0.471,0.426-0.779,0.645s-0.646,0.418-1.014,0.598s-0.758,0.328-1.172,0.445s-0.832,0.176-1.254,0.176
		c-0.727,0-1.352-0.096-1.875-0.287s-0.955-0.494-1.295-0.908s-0.59-0.949-0.75-1.605s-0.24-1.449-0.24-2.379V115.698z
		 M72.708,111.631c-0.227,0-0.43-0.041-0.609-0.123s-0.334-0.195-0.463-0.34s-0.229-0.314-0.299-0.51s-0.105-0.406-0.105-0.633
		c0-0.242,0.035-0.477,0.105-0.703s0.178-0.428,0.322-0.604s0.324-0.314,0.539-0.416s0.467-0.152,0.756-0.152h0.012
		c0.25,0,0.473,0.045,0.668,0.135s0.357,0.211,0.486,0.363s0.227,0.326,0.293,0.521s0.1,0.395,0.1,0.598
		c0,0.258-0.037,0.5-0.111,0.727s-0.186,0.424-0.334,0.592s-0.334,0.301-0.557,0.398s-0.486,0.146-0.791,0.146H72.708z
		 M78.18,111.631c-0.219,0-0.418-0.043-0.598-0.129s-0.334-0.201-0.463-0.346s-0.229-0.314-0.299-0.51s-0.105-0.402-0.105-0.621
		c0-0.242,0.035-0.477,0.105-0.703s0.178-0.428,0.322-0.604s0.324-0.314,0.539-0.416s0.467-0.152,0.756-0.152h0.012
		c0.258,0,0.482,0.045,0.674,0.135s0.354,0.211,0.486,0.363s0.232,0.326,0.299,0.521s0.1,0.395,0.1,0.598
		c0,0.258-0.037,0.5-0.111,0.727s-0.186,0.424-0.334,0.592s-0.336,0.301-0.563,0.398s-0.496,0.146-0.809,0.146H78.18z"/>
	<path fill="#FFFFFF" d="M84.085,126.397l1.84-0.183v-9.497l-1.664-0.469v-1.406l3.352-0.469h0.059l0.563,0.457v0.77l-0.023,1.589
		h0.023c0.039-0.08,0.119-0.208,0.24-0.382s0.277-0.366,0.469-0.576s0.416-0.429,0.674-0.655s0.545-0.432,0.861-0.618
		s0.658-0.338,1.025-0.455s0.762-0.176,1.184-0.176c0.18,0,0.332,0.013,0.457,0.036c0.125,0.024,0.23,0.057,0.316,0.097v2.964
		c-0.133-0.1-0.32-0.189-0.563-0.27s-0.516-0.12-0.82-0.12c-0.438,0-0.834,0.03-1.189,0.093c-0.355,0.062-0.676,0.144-0.961,0.246
		c-0.285,0.104-0.537,0.218-0.756,0.346c-0.219,0.127-0.41,0.252-0.574,0.375v8.21h3.082v1.359h-7.594V126.397z"/>
	<path fill="#FFFFFF" d="M101.475,126.437l1.465-0.193v-9.525l-1.676-0.453v-1.481l3.457-0.469h0.059l0.563,0.457v0.995
		l-0.023,0.565c0.258-0.243,0.58-0.486,0.967-0.729s0.801-0.457,1.242-0.645c0.441-0.186,0.889-0.338,1.342-0.455
		c0.453-0.118,0.879-0.177,1.277-0.177c0.867,0,1.561,0.145,2.08,0.434s0.916,0.738,1.189,1.348
		c0.219-0.188,0.508-0.387,0.867-0.598s0.752-0.404,1.178-0.58s0.867-0.32,1.324-0.434s0.893-0.17,1.307-0.17
		c0.766,0,1.4,0.105,1.904,0.315c0.504,0.211,0.902,0.534,1.195,0.971c0.293,0.436,0.498,0.992,0.615,1.67s0.176,1.486,0.176,2.428
		v6.533l1.676,0.193v1.226h-5.742v-1.226l1.383-0.205v-6.417c0-0.626-0.033-1.169-0.1-1.63c-0.066-0.462-0.191-0.846-0.375-1.15
		s-0.441-0.531-0.773-0.68c-0.332-0.149-0.76-0.224-1.283-0.224c-0.258,0-0.523,0.032-0.797,0.098s-0.545,0.152-0.814,0.262
		s-0.523,0.231-0.762,0.365s-0.451,0.271-0.639,0.407c0.078,0.356,0.133,0.746,0.164,1.17s0.047,0.885,0.047,1.385v6.414
		l1.711,0.205v1.226h-5.953v-1.226l1.559-0.205v-6.481c0-0.618-0.027-1.155-0.082-1.609s-0.168-0.83-0.34-1.128
		s-0.412-0.52-0.721-0.664s-0.713-0.218-1.213-0.218c-0.289,0-0.584,0.034-0.885,0.104s-0.596,0.163-0.885,0.28
		c-0.289,0.118-0.564,0.252-0.826,0.402c-0.262,0.151-0.498,0.312-0.709,0.482v8.832l1.57,0.205v1.226h-5.719V126.437z"/>
	<path fill="#FFFFFF" d="M124.748,121.017c0-1.001,0.156-1.912,0.469-2.734s0.748-1.525,1.307-2.112s1.223-1.04,1.992-1.362
		c0.77-0.32,1.611-0.481,2.525-0.481c1.5,0,2.66,0.371,3.48,1.114c0.82,0.742,1.258,1.828,1.313,3.256
		c0.008,0.457,0.002,0.856-0.018,1.199s-0.061,0.643-0.123,0.899h-8.121c0.023,0.891,0.146,1.656,0.369,2.297
		s0.512,1.166,0.867,1.576s0.77,0.713,1.242,0.908s0.975,0.293,1.506,0.293c0.336,0,0.676-0.031,1.02-0.094s0.674-0.146,0.99-0.252
		s0.609-0.223,0.879-0.352s0.494-0.264,0.674-0.404l0.492,1.125c-0.219,0.228-0.504,0.447-0.855,0.662s-0.74,0.404-1.166,0.568
		s-0.881,0.297-1.365,0.398s-0.973,0.152-1.465,0.152c-1.008,0-1.889-0.163-2.643-0.487c-0.754-0.325-1.381-0.783-1.881-1.373
		s-0.873-1.293-1.119-2.107S124.748,121.996,124.748,121.017z M133.021,119.436c0.016-0.134,0.027-0.28,0.035-0.438
		s0.012-0.3,0.012-0.428c0-0.389-0.047-0.754-0.141-1.097c-0.094-0.342-0.24-0.642-0.439-0.899
		c-0.199-0.259-0.459-0.461-0.779-0.608c-0.32-0.148-0.715-0.222-1.184-0.222c-0.398,0-0.77,0.059-1.113,0.177
		c-0.344,0.117-0.646,0.318-0.908,0.604c-0.262,0.284-0.473,0.663-0.633,1.136c-0.16,0.474-0.26,1.064-0.299,1.775H133.021z"/>
	<path fill="#FFFFFF" d="M137.298,126.425l1.406-0.182v-16.112l-1.934-0.234v-1.113l3.973-0.504h0.059l0.563,0.398l0.012,5.491
		l-0.105,2.118c0.211-0.195,0.482-0.406,0.814-0.634c0.332-0.227,0.703-0.44,1.113-0.639c0.41-0.199,0.854-0.363,1.33-0.494
		c0.477-0.129,0.969-0.194,1.477-0.194c0.758,0,1.385,0.105,1.881,0.315c0.496,0.211,0.889,0.538,1.178,0.982
		c0.289,0.443,0.492,1.006,0.609,1.688c0.117,0.681,0.176,1.492,0.176,2.434v6.486l1.688,0.193v1.237h-5.895v-1.226l1.535-0.193
		v-6.486c0-0.609-0.029-1.142-0.088-1.596c-0.059-0.453-0.174-0.829-0.346-1.127c-0.172-0.297-0.414-0.52-0.727-0.668
		c-0.313-0.149-0.723-0.224-1.23-0.224c-0.297,0-0.598,0.032-0.902,0.097s-0.604,0.153-0.896,0.266
		c-0.293,0.113-0.576,0.246-0.85,0.398c-0.273,0.154-0.523,0.318-0.75,0.496v8.832l1.664,0.193v1.237h-5.754V126.425z"/>
	<path fill="#FFFFFF" d="M152.708,126.397l1.84-0.183v-9.497l-1.664-0.469v-1.406l3.352-0.469h0.059l0.563,0.457v0.77l-0.023,1.589
		h0.023c0.039-0.08,0.119-0.208,0.24-0.382s0.277-0.366,0.469-0.576s0.416-0.429,0.674-0.655s0.545-0.432,0.861-0.618
		s0.658-0.338,1.025-0.455s0.762-0.176,1.184-0.176c0.18,0,0.332,0.013,0.457,0.036c0.125,0.024,0.23,0.057,0.316,0.097v2.964
		c-0.133-0.1-0.32-0.189-0.563-0.27s-0.516-0.12-0.82-0.12c-0.438,0-0.834,0.03-1.189,0.093c-0.355,0.062-0.676,0.144-0.961,0.246
		c-0.285,0.104-0.537,0.218-0.756,0.346c-0.219,0.127-0.41,0.252-0.574,0.375v8.21h3.082v1.359h-7.594V126.397z"/>
	<path fill="#FFFFFF" d="M177.351,127.674c-1.273,0-2.393-0.211-3.357-0.634c-0.965-0.422-1.773-1.023-2.426-1.803
		s-1.143-1.715-1.471-2.807s-0.492-2.297-0.492-3.612c0-1.377,0.205-2.618,0.615-3.726s0.979-2.053,1.705-2.836
		s1.584-1.387,2.572-1.809c0.988-0.423,2.061-0.634,3.217-0.634c1.273,0,2.391,0.208,3.352,0.624s1.762,1.004,2.402,1.765
		c0.641,0.76,1.121,1.679,1.441,2.755c0.32,1.077,0.48,2.271,0.48,3.586c0,1.383-0.203,2.633-0.609,3.752
		c-0.406,1.118-0.967,2.074-1.682,2.869s-1.563,1.411-2.543,1.85C179.575,127.455,178.507,127.674,177.351,127.674z
		 M177.503,126.292c0.734,0,1.4-0.161,1.998-0.483s1.107-0.805,1.529-1.445c0.422-0.643,0.748-1.448,0.979-2.42
		c0.23-0.971,0.346-2.105,0.346-3.403c0-1.138-0.107-2.163-0.322-3.073s-0.529-1.684-0.943-2.316
		c-0.414-0.634-0.922-1.119-1.523-1.457s-1.285-0.507-2.051-0.507c-0.734,0-1.4,0.153-1.998,0.461s-1.109,0.776-1.535,1.406
		s-0.754,1.425-0.984,2.385s-0.346,2.089-0.346,3.386c0,1.139,0.107,2.169,0.322,3.091c0.215,0.923,0.529,1.708,0.943,2.356
		s0.922,1.148,1.523,1.497S176.729,126.292,177.503,126.292z"/>
	<path fill="#FFFFFF" d="M186.69,126.397l1.98-0.223v-10.148h-2.238v-1.16l2.238-0.527v-1.048c0-0.721,0.16-1.393,0.48-2.018
		s0.744-1.17,1.271-1.633s1.125-0.827,1.793-1.092c0.668-0.266,1.35-0.397,2.045-0.397c0.391,0,0.689,0.021,0.896,0.064
		s0.377,0.084,0.51,0.123v2.591c-0.063-0.052-0.164-0.11-0.305-0.177s-0.309-0.13-0.504-0.188s-0.418-0.108-0.668-0.148
		c-0.25-0.041-0.516-0.062-0.797-0.062c-0.383,0-0.705,0.032-0.967,0.097c-0.262,0.063-0.473,0.176-0.633,0.336
		s-0.275,0.377-0.346,0.651s-0.105,0.625-0.105,1.053l0.012,1.848h3.223v1.688h-3.223v10.16l2.543,0.211v1.266h-7.207V126.397z"/>
	<path fill="#FFFFFF" d="M195.865,126.397l1.98-0.223v-10.148h-2.238v-1.16l2.238-0.527v-1.048c0-0.721,0.16-1.393,0.48-2.018
		s0.744-1.17,1.271-1.633s1.125-0.827,1.793-1.092c0.668-0.266,1.35-0.397,2.045-0.397c0.391,0,0.689,0.021,0.896,0.064
		s0.377,0.084,0.51,0.123v2.591c-0.063-0.052-0.164-0.11-0.305-0.177s-0.309-0.13-0.504-0.188s-0.418-0.108-0.668-0.148
		c-0.25-0.041-0.516-0.062-0.797-0.062c-0.383,0-0.705,0.032-0.967,0.097c-0.262,0.063-0.473,0.176-0.633,0.336
		s-0.275,0.377-0.346,0.651s-0.105,0.625-0.105,1.053l0.012,1.848h3.223v1.688h-3.223v10.16l2.543,0.211v1.266h-7.207V126.397z"/>
	<path fill="#FFFFFF" d="M204.993,121.017c0-1.001,0.156-1.912,0.469-2.734s0.748-1.525,1.307-2.112s1.223-1.04,1.992-1.362
		c0.77-0.32,1.611-0.481,2.525-0.481c1.5,0,2.66,0.371,3.48,1.114c0.82,0.742,1.258,1.828,1.313,3.256
		c0.008,0.457,0.002,0.856-0.018,1.199s-0.061,0.643-0.123,0.899h-8.121c0.023,0.891,0.146,1.656,0.369,2.297
		s0.512,1.166,0.867,1.576s0.77,0.713,1.242,0.908s0.975,0.293,1.506,0.293c0.336,0,0.676-0.031,1.02-0.094s0.674-0.146,0.99-0.252
		s0.609-0.223,0.879-0.352s0.494-0.264,0.674-0.404l0.492,1.125c-0.219,0.228-0.504,0.447-0.855,0.662s-0.74,0.404-1.166,0.568
		s-0.881,0.297-1.365,0.398s-0.973,0.152-1.465,0.152c-1.008,0-1.889-0.163-2.643-0.487c-0.754-0.325-1.381-0.783-1.881-1.373
		s-0.873-1.293-1.119-2.107S204.993,121.996,204.993,121.017z M213.267,119.436c0.016-0.134,0.027-0.28,0.035-0.438
		s0.012-0.3,0.012-0.428c0-0.389-0.047-0.754-0.141-1.097c-0.094-0.342-0.24-0.642-0.439-0.899
		c-0.199-0.259-0.459-0.461-0.779-0.608c-0.32-0.148-0.715-0.222-1.184-0.222c-0.398,0-0.77,0.059-1.113,0.177
		c-0.344,0.117-0.646,0.318-0.908,0.604c-0.262,0.284-0.473,0.663-0.633,1.136c-0.16,0.474-0.26,1.064-0.299,1.775H213.267z"/>
	<path fill="#FFFFFF" d="M217.696,126.425l1.535-0.193v-9.514l-1.676-0.453v-1.481l3.469-0.469h0.059l0.551,0.457v0.995
		l-0.012,0.565c0.258-0.243,0.574-0.483,0.949-0.724c0.375-0.238,0.779-0.453,1.213-0.645c0.434-0.189,0.883-0.344,1.348-0.461
		c0.465-0.118,0.916-0.177,1.354-0.177c0.766,0,1.396,0.104,1.893,0.31c0.496,0.207,0.889,0.53,1.178,0.971
		c0.289,0.439,0.49,1.002,0.604,1.688s0.17,1.502,0.17,2.451v6.486l1.688,0.193v1.237h-5.883v-1.237l1.5-0.193v-6.475
		c0-0.617-0.029-1.152-0.088-1.606s-0.172-0.829-0.34-1.127s-0.406-0.519-0.715-0.663c-0.309-0.146-0.713-0.218-1.213-0.218
		c-0.297,0-0.6,0.036-0.908,0.108s-0.609,0.17-0.902,0.29s-0.572,0.257-0.838,0.41s-0.504,0.31-0.715,0.471v8.81l1.617,0.193v1.237
		h-5.836V126.425z"/>
	<path fill="#FFFFFF" d="M233.128,126.425l1.406-0.182v-16.112l-1.934-0.234v-1.113l3.973-0.504h0.059l0.563,0.398l0.012,5.491
		l-0.105,2.118c0.211-0.195,0.482-0.406,0.814-0.634c0.332-0.227,0.703-0.44,1.113-0.639c0.41-0.199,0.854-0.363,1.33-0.494
		c0.477-0.129,0.969-0.194,1.477-0.194c0.758,0,1.385,0.105,1.881,0.315c0.496,0.211,0.889,0.538,1.178,0.982
		c0.289,0.443,0.492,1.006,0.609,1.688c0.117,0.681,0.176,1.492,0.176,2.434v6.486l1.688,0.193v1.237h-5.895v-1.226l1.535-0.193
		v-6.486c0-0.609-0.029-1.142-0.088-1.596c-0.059-0.453-0.174-0.829-0.346-1.127c-0.172-0.297-0.414-0.52-0.727-0.668
		c-0.313-0.149-0.723-0.224-1.23-0.224c-0.297,0-0.598,0.032-0.902,0.097s-0.604,0.153-0.896,0.266
		c-0.293,0.113-0.576,0.246-0.85,0.398c-0.273,0.154-0.523,0.318-0.75,0.496v8.832l1.664,0.193v1.237h-5.754V126.425z"/>
	<path fill="#FFFFFF" d="M248.444,121.017c0-1.001,0.156-1.912,0.469-2.734s0.748-1.525,1.307-2.112s1.223-1.04,1.992-1.362
		c0.77-0.32,1.611-0.481,2.525-0.481c1.5,0,2.66,0.371,3.48,1.114c0.82,0.742,1.258,1.828,1.313,3.256
		c0.008,0.457,0.002,0.856-0.018,1.199s-0.061,0.643-0.123,0.899h-8.121c0.023,0.891,0.146,1.656,0.369,2.297
		s0.512,1.166,0.867,1.576s0.77,0.713,1.242,0.908s0.975,0.293,1.506,0.293c0.336,0,0.676-0.031,1.02-0.094s0.674-0.146,0.99-0.252
		s0.609-0.223,0.879-0.352s0.494-0.264,0.674-0.404l0.492,1.125c-0.219,0.228-0.504,0.447-0.855,0.662s-0.74,0.404-1.166,0.568
		s-0.881,0.297-1.365,0.398s-0.973,0.152-1.465,0.152c-1.008,0-1.889-0.163-2.643-0.487c-0.754-0.325-1.381-0.783-1.881-1.373
		s-0.873-1.293-1.119-2.107S248.444,121.996,248.444,121.017z M256.718,119.436c0.016-0.134,0.027-0.28,0.035-0.438
		s0.012-0.3,0.012-0.428c0-0.389-0.047-0.754-0.141-1.097c-0.094-0.342-0.24-0.642-0.439-0.899
		c-0.199-0.259-0.459-0.461-0.779-0.608c-0.32-0.148-0.715-0.222-1.184-0.222c-0.398,0-0.77,0.059-1.113,0.177
		c-0.344,0.117-0.646,0.318-0.908,0.604c-0.262,0.284-0.473,0.663-0.633,1.136c-0.16,0.474-0.26,1.064-0.299,1.775H256.718z"/>
	<path fill="#FFFFFF" d="M260.865,126.385l1.898-0.199v-9.82l-1.699-0.48v-1.383l3.727-0.48h0.059l0.598,0.457v11.707l1.875,0.199
		v1.277h-6.457V126.385z M263.109,111.532c-0.191-0.082-0.354-0.195-0.486-0.34s-0.236-0.314-0.311-0.51s-0.111-0.406-0.111-0.633
		c0-0.25,0.037-0.488,0.111-0.715s0.186-0.428,0.334-0.604s0.332-0.316,0.551-0.422s0.473-0.158,0.762-0.158h0.012
		c0.258,0,0.486,0.045,0.686,0.135s0.367,0.211,0.504,0.363s0.24,0.326,0.311,0.521s0.105,0.398,0.105,0.609
		c0,0.258-0.037,0.502-0.111,0.732s-0.188,0.43-0.34,0.598s-0.344,0.301-0.574,0.398s-0.498,0.146-0.803,0.146h-0.012
		C263.51,111.655,263.301,111.614,263.109,111.532z"/>
	<path fill="#FFFFFF" d="M269.912,116.014h-1.676v-1.113c0.102-0.024,0.217-0.06,0.346-0.106c0.129-0.045,0.258-0.091,0.387-0.137
		c0.129-0.045,0.246-0.091,0.352-0.137c0.105-0.045,0.182-0.084,0.229-0.118c0.133-0.099,0.25-0.226,0.352-0.38
		c0.102-0.152,0.195-0.35,0.281-0.591c0.063-0.149,0.137-0.351,0.223-0.604s0.17-0.515,0.252-0.784s0.158-0.528,0.229-0.777
		s0.121-0.443,0.152-0.585h1.523l0.023,3.656h3.938v1.676h-3.926v6.943c0,0.658,0.012,1.175,0.035,1.55s0.08,0.654,0.17,0.838
		s0.225,0.298,0.404,0.344s0.422,0.068,0.727,0.068h0.012c0.219,0,0.455-0.015,0.709-0.045s0.498-0.068,0.732-0.113
		c0.234-0.046,0.451-0.095,0.65-0.148c0.199-0.053,0.357-0.102,0.475-0.146h0.012l0.398,1.121c-0.18,0.145-0.426,0.29-0.738,0.438
		s-0.656,0.279-1.031,0.396c-0.375,0.118-0.762,0.217-1.16,0.296s-0.773,0.119-1.125,0.119h-0.023c-0.461,0-0.873-0.046-1.236-0.138
		s-0.67-0.244-0.92-0.459s-0.441-0.495-0.574-0.844c-0.133-0.348-0.199-0.774-0.199-1.279V116.014z"/>
	<path fill="#FFFFFF" d="M279.181,125.694c0-0.242,0.043-0.461,0.129-0.656s0.199-0.363,0.34-0.504s0.305-0.248,0.492-0.322
		s0.383-0.111,0.586-0.111h0.141c0.289,0,0.553,0.068,0.791,0.205s0.443,0.334,0.615,0.592s0.303,0.57,0.393,0.938
		s0.135,0.781,0.135,1.242c0,0.695-0.092,1.361-0.275,1.998s-0.418,1.213-0.703,1.729s-0.6,0.959-0.943,1.33
		s-0.676,0.643-0.996,0.814h-0.023l-0.785-0.645v-0.281c0.141-0.117,0.299-0.268,0.475-0.451s0.338-0.406,0.486-0.668
		s0.273-0.566,0.375-0.914s0.152-0.74,0.152-1.178c0-0.281-0.033-0.518-0.1-0.709s-0.152-0.359-0.258-0.504
		s-0.217-0.275-0.334-0.393s-0.229-0.244-0.334-0.381s-0.191-0.293-0.258-0.469S279.181,125.959,279.181,125.694z"/>
	<path fill="#FFFFFF" d="M300.964,112.867l1.313-1.575h-6.715l-1.313,3.339l-1.465-0.195l0.516-4.608h11.637l0.598,1.104
		l-9.141,13.539l-1.5,1.587h7.887l1.324-3.802l1.523,0.301l-0.563,5.106h-12.703l-0.691-1.135L300.964,112.867z"/>
	<path fill="#FFFFFF" d="M308.417,115.698l-1.301-0.434v-1.137l3.469-0.352h0.012l0.492,0.316v8.273c0,0.641,0.033,1.186,0.1,1.635
		s0.188,0.814,0.363,1.096s0.416,0.484,0.721,0.609s0.695,0.188,1.172,0.188c0.344,0,0.67-0.039,0.979-0.117s0.592-0.176,0.85-0.293
		s0.492-0.242,0.703-0.375s0.387-0.258,0.527-0.375v-9.023l-1.676-0.457v-1.137l3.703-0.34h0.023l0.621,0.316v11.988h1.406v1.172
		c-0.273,0.087-0.605,0.178-0.996,0.275s-0.832,0.146-1.324,0.146c-0.484,0-0.85-0.092-1.096-0.275s-0.369-0.51-0.369-0.979v-0.609
		c-0.211,0.211-0.471,0.426-0.779,0.645s-0.646,0.418-1.014,0.598s-0.758,0.328-1.172,0.445s-0.832,0.176-1.254,0.176
		c-0.727,0-1.352-0.096-1.875-0.287s-0.955-0.494-1.295-0.908s-0.59-0.949-0.75-1.605s-0.24-1.449-0.24-2.379V115.698z"/>
	<path fill="#FFFFFF" d="M322.338,123.73h1.652l0.469,1.694c0.07,0.112,0.191,0.224,0.363,0.335s0.375,0.212,0.609,0.301
		c0.234,0.09,0.494,0.16,0.779,0.212s0.576,0.078,0.873,0.078c0.469,0,0.861-0.045,1.178-0.135c0.316-0.089,0.568-0.215,0.756-0.376
		c0.188-0.16,0.32-0.35,0.398-0.566s0.117-0.452,0.117-0.706c0-0.299-0.074-0.566-0.223-0.802s-0.371-0.46-0.668-0.674
		c-0.297-0.213-0.666-0.422-1.107-0.627c-0.441-0.206-0.959-0.421-1.553-0.646c-0.602-0.224-1.127-0.468-1.576-0.729
		s-0.822-0.557-1.119-0.886s-0.518-0.695-0.662-1.099c-0.145-0.404-0.217-0.863-0.217-1.38s0.123-0.981,0.369-1.396
		s0.588-0.772,1.025-1.071s0.955-0.529,1.553-0.689s1.248-0.241,1.951-0.241c0.508,0,0.973,0.031,1.395,0.095
		c0.422,0.063,0.797,0.136,1.125,0.219c0.328,0.082,0.613,0.165,0.855,0.248c0.242,0.082,0.441,0.143,0.598,0.183v2.849h-1.5
		l-0.504-1.564c-0.047-0.09-0.133-0.178-0.258-0.264c-0.125-0.085-0.279-0.162-0.463-0.229s-0.391-0.121-0.621-0.162
		s-0.471-0.062-0.721-0.062c-0.383,0-0.719,0.04-1.008,0.118s-0.531,0.187-0.727,0.324c-0.195,0.139-0.342,0.307-0.439,0.505
		s-0.146,0.413-0.146,0.644c0,0.374,0.088,0.686,0.264,0.936c0.176,0.251,0.408,0.472,0.697,0.662s0.619,0.36,0.99,0.51
		s0.756,0.307,1.154,0.471c0.523,0.217,1.033,0.444,1.529,0.684c0.496,0.238,0.934,0.516,1.313,0.829s0.684,0.678,0.914,1.093
		c0.23,0.414,0.346,0.913,0.346,1.496c0,0.56-0.117,1.071-0.352,1.535c-0.234,0.463-0.572,0.86-1.014,1.193
		c-0.441,0.332-0.98,0.588-1.617,0.768s-1.361,0.269-2.174,0.269c-0.445,0-0.898-0.035-1.359-0.105s-0.898-0.158-1.313-0.264
		s-0.789-0.215-1.125-0.328c-0.336-0.112-0.605-0.217-0.809-0.311V123.73z"/>
	<path fill="#FFFFFF" d="M333.634,123.861c0-0.822,0.221-1.518,0.662-2.09c0.441-0.57,1.027-1.036,1.758-1.396
		c0.73-0.359,1.566-0.625,2.508-0.797c0.941-0.173,1.916-0.259,2.924-0.259v-0.521c0-0.455-0.039-0.842-0.117-1.163
		s-0.217-0.581-0.416-0.782c-0.199-0.2-0.467-0.348-0.803-0.44c-0.336-0.094-0.762-0.141-1.277-0.141
		c-0.438,0-0.861,0.032-1.271,0.097c-0.41,0.065-0.795,0.146-1.154,0.246c-0.359,0.098-0.688,0.203-0.984,0.316
		c-0.297,0.112-0.551,0.216-0.762,0.312h-0.012l-0.586-1.076c0.133-0.125,0.385-0.291,0.756-0.498s0.809-0.41,1.313-0.609
		s1.049-0.371,1.635-0.516s1.16-0.217,1.723-0.217c0.844,0,1.555,0.081,2.133,0.241s1.045,0.421,1.4,0.779
		c0.355,0.359,0.611,0.824,0.768,1.396s0.234,1.266,0.234,2.081v7.291h1.43v1.148c-0.148,0.04-0.326,0.082-0.533,0.129
		s-0.428,0.09-0.662,0.129s-0.471,0.074-0.709,0.105s-0.463,0.047-0.674,0.047c-0.227,0-0.418-0.012-0.574-0.035
		s-0.285-0.076-0.387-0.158s-0.176-0.203-0.223-0.363s-0.07-0.373-0.07-0.639v-0.563c-0.133,0.125-0.322,0.287-0.568,0.486
		s-0.539,0.393-0.879,0.58s-0.723,0.35-1.148,0.486s-0.885,0.205-1.377,0.205c-0.539,0-1.055-0.074-1.547-0.223
		c-0.492-0.149-0.924-0.378-1.295-0.687c-0.371-0.31-0.666-0.704-0.885-1.186S333.634,124.525,333.634,123.861z M336.552,123.526
		c0,0.43,0.057,0.795,0.17,1.096s0.27,0.547,0.469,0.738s0.438,0.33,0.715,0.416s0.576,0.129,0.896,0.129
		c0.18,0,0.385-0.027,0.615-0.082s0.467-0.131,0.709-0.229s0.48-0.211,0.715-0.34s0.449-0.268,0.645-0.416v-4.207
		c-0.906,0-1.672,0.08-2.297,0.24s-1.133,0.371-1.523,0.633s-0.674,0.568-0.85,0.92S336.552,123.143,336.552,123.526z"/>
	<path fill="#FFFFFF" d="M346.829,126.437l1.465-0.193v-9.525l-1.676-0.453v-1.481l3.457-0.469h0.059l0.563,0.457v0.995
		l-0.023,0.565c0.258-0.243,0.58-0.486,0.967-0.729s0.801-0.457,1.242-0.645c0.441-0.186,0.889-0.338,1.342-0.455
		c0.453-0.118,0.879-0.177,1.277-0.177c0.867,0,1.561,0.145,2.08,0.434s0.916,0.738,1.189,1.348
		c0.219-0.188,0.508-0.387,0.867-0.598s0.752-0.404,1.178-0.58s0.867-0.32,1.324-0.434s0.893-0.17,1.307-0.17
		c0.766,0,1.4,0.105,1.904,0.315c0.504,0.211,0.902,0.534,1.195,0.971c0.293,0.436,0.498,0.992,0.615,1.67s0.176,1.486,0.176,2.428
		v6.533l1.676,0.193v1.226h-5.742v-1.226l1.383-0.205v-6.417c0-0.626-0.033-1.169-0.1-1.63c-0.066-0.462-0.191-0.846-0.375-1.15
		s-0.441-0.531-0.773-0.68c-0.332-0.149-0.76-0.224-1.283-0.224c-0.258,0-0.523,0.032-0.797,0.098s-0.545,0.152-0.814,0.262
		s-0.523,0.231-0.762,0.365s-0.451,0.271-0.639,0.407c0.078,0.356,0.133,0.746,0.164,1.17s0.047,0.885,0.047,1.385v6.414
		l1.711,0.205v1.226h-5.953v-1.226l1.559-0.205v-6.481c0-0.618-0.027-1.155-0.082-1.609s-0.168-0.83-0.34-1.128
		s-0.412-0.52-0.721-0.664s-0.713-0.218-1.213-0.218c-0.289,0-0.584,0.034-0.885,0.104s-0.596,0.163-0.885,0.28
		c-0.289,0.118-0.564,0.252-0.826,0.402c-0.262,0.151-0.498,0.312-0.709,0.482v8.832l1.57,0.205v1.226h-5.719V126.437z"/>
	<path fill="#FFFFFF" d="M370.371,126.437l1.465-0.193v-9.525l-1.676-0.453v-1.481l3.457-0.469h0.059l0.563,0.457v0.995
		l-0.023,0.565c0.258-0.243,0.58-0.486,0.967-0.729s0.801-0.457,1.242-0.645c0.441-0.186,0.889-0.338,1.342-0.455
		c0.453-0.118,0.879-0.177,1.277-0.177c0.867,0,1.561,0.145,2.08,0.434s0.916,0.738,1.189,1.348
		c0.219-0.188,0.508-0.387,0.867-0.598s0.752-0.404,1.178-0.58s0.867-0.32,1.324-0.434s0.893-0.17,1.307-0.17
		c0.766,0,1.4,0.105,1.904,0.315c0.504,0.211,0.902,0.534,1.195,0.971c0.293,0.436,0.498,0.992,0.615,1.67s0.176,1.486,0.176,2.428
		v6.533l1.676,0.193v1.226h-5.742v-1.226l1.383-0.205v-6.417c0-0.626-0.033-1.169-0.1-1.63c-0.066-0.462-0.191-0.846-0.375-1.15
		s-0.441-0.531-0.773-0.68c-0.332-0.149-0.76-0.224-1.283-0.224c-0.258,0-0.523,0.032-0.797,0.098s-0.545,0.152-0.814,0.262
		s-0.523,0.231-0.762,0.365s-0.451,0.271-0.639,0.407c0.078,0.356,0.133,0.746,0.164,1.17s0.047,0.885,0.047,1.385v6.414
		l1.711,0.205v1.226h-5.953v-1.226l1.559-0.205v-6.481c0-0.618-0.027-1.155-0.082-1.609s-0.168-0.83-0.34-1.128
		s-0.412-0.52-0.721-0.664s-0.713-0.218-1.213-0.218c-0.289,0-0.584,0.034-0.885,0.104s-0.596,0.163-0.885,0.28
		c-0.289,0.118-0.564,0.252-0.826,0.402c-0.262,0.151-0.498,0.312-0.709,0.482v8.832l1.57,0.205v1.226h-5.719V126.437z"/>
	<path fill="#FFFFFF" d="M393.644,121.017c0-1.001,0.156-1.912,0.469-2.734s0.748-1.525,1.307-2.112s1.223-1.04,1.992-1.362
		c0.77-0.32,1.611-0.481,2.525-0.481c1.5,0,2.66,0.371,3.48,1.114c0.82,0.742,1.258,1.828,1.313,3.256
		c0.008,0.457,0.002,0.856-0.018,1.199s-0.061,0.643-0.123,0.899h-8.121c0.023,0.891,0.146,1.656,0.369,2.297
		s0.512,1.166,0.867,1.576s0.77,0.713,1.242,0.908s0.975,0.293,1.506,0.293c0.336,0,0.676-0.031,1.02-0.094s0.674-0.146,0.99-0.252
		s0.609-0.223,0.879-0.352s0.494-0.264,0.674-0.404l0.492,1.125c-0.219,0.228-0.504,0.447-0.855,0.662s-0.74,0.404-1.166,0.568
		s-0.881,0.297-1.365,0.398s-0.973,0.152-1.465,0.152c-1.008,0-1.889-0.163-2.643-0.487c-0.754-0.325-1.381-0.783-1.881-1.373
		s-0.873-1.293-1.119-2.107S393.644,121.996,393.644,121.017z M401.917,119.436c0.016-0.134,0.027-0.28,0.035-0.438
		s0.012-0.3,0.012-0.428c0-0.389-0.047-0.754-0.141-1.097c-0.094-0.342-0.24-0.642-0.439-0.899
		c-0.199-0.259-0.459-0.461-0.779-0.608c-0.32-0.148-0.715-0.222-1.184-0.222c-0.398,0-0.77,0.059-1.113,0.177
		c-0.344,0.117-0.646,0.318-0.908,0.604c-0.262,0.284-0.473,0.663-0.633,1.136c-0.16,0.474-0.26,1.064-0.299,1.775H401.917z"/>
	<path fill="#FFFFFF" d="M406.347,126.425l1.535-0.193v-9.514l-1.676-0.453v-1.481l3.469-0.469h0.059l0.551,0.457v0.995
		l-0.012,0.565c0.258-0.243,0.574-0.483,0.949-0.724c0.375-0.238,0.779-0.453,1.213-0.645c0.434-0.189,0.883-0.344,1.348-0.461
		c0.465-0.118,0.916-0.177,1.354-0.177c0.766,0,1.396,0.104,1.893,0.31c0.496,0.207,0.889,0.53,1.178,0.971
		c0.289,0.439,0.49,1.002,0.604,1.688s0.17,1.502,0.17,2.451v6.486l1.688,0.193v1.237h-5.883v-1.237l1.5-0.193v-6.475
		c0-0.617-0.029-1.152-0.088-1.606s-0.172-0.829-0.34-1.127s-0.406-0.519-0.715-0.663c-0.309-0.146-0.713-0.218-1.213-0.218
		c-0.297,0-0.6,0.036-0.908,0.108s-0.609,0.17-0.902,0.29s-0.572,0.257-0.838,0.41s-0.504,0.31-0.715,0.471v8.81l1.617,0.193v1.237
		h-5.836V126.425z"/>
	<path fill="#FFFFFF" d="M421.732,123.861c0-0.822,0.221-1.518,0.662-2.09c0.441-0.57,1.027-1.036,1.758-1.396
		c0.73-0.359,1.566-0.625,2.508-0.797c0.941-0.173,1.916-0.259,2.924-0.259v-0.521c0-0.455-0.039-0.842-0.117-1.163
		s-0.217-0.581-0.416-0.782c-0.199-0.2-0.467-0.348-0.803-0.44c-0.336-0.094-0.762-0.141-1.277-0.141
		c-0.438,0-0.861,0.032-1.271,0.097c-0.41,0.065-0.795,0.146-1.154,0.246c-0.359,0.098-0.688,0.203-0.984,0.316
		c-0.297,0.112-0.551,0.216-0.762,0.312h-0.012l-0.586-1.076c0.133-0.125,0.385-0.291,0.756-0.498s0.809-0.41,1.313-0.609
		s1.049-0.371,1.635-0.516s1.16-0.217,1.723-0.217c0.844,0,1.555,0.081,2.133,0.241s1.045,0.421,1.4,0.779
		c0.355,0.359,0.611,0.824,0.768,1.396s0.234,1.266,0.234,2.081v7.291h1.43v1.148c-0.148,0.04-0.326,0.082-0.533,0.129
		s-0.428,0.09-0.662,0.129s-0.471,0.074-0.709,0.105s-0.463,0.047-0.674,0.047c-0.227,0-0.418-0.012-0.574-0.035
		s-0.285-0.076-0.387-0.158s-0.176-0.203-0.223-0.363s-0.07-0.373-0.07-0.639v-0.563c-0.133,0.125-0.322,0.287-0.568,0.486
		s-0.539,0.393-0.879,0.58s-0.723,0.35-1.148,0.486s-0.885,0.205-1.377,0.205c-0.539,0-1.055-0.074-1.547-0.223
		c-0.492-0.149-0.924-0.378-1.295-0.687c-0.371-0.31-0.666-0.704-0.885-1.186S421.732,124.525,421.732,123.861z M424.65,123.526
		c0,0.43,0.057,0.795,0.17,1.096s0.27,0.547,0.469,0.738s0.438,0.33,0.715,0.416s0.576,0.129,0.896,0.129
		c0.18,0,0.385-0.027,0.615-0.082s0.467-0.131,0.709-0.229s0.48-0.211,0.715-0.34s0.449-0.268,0.645-0.416v-4.207
		c-0.906,0-1.672,0.08-2.297,0.24s-1.133,0.371-1.523,0.633s-0.674,0.568-0.85,0.92S424.65,123.143,424.65,123.526z"/>
	<path fill="#FFFFFF" d="M434.751,126.397l1.84-0.183v-9.497l-1.664-0.469v-1.406l3.352-0.469h0.059l0.563,0.457v0.77l-0.023,1.589
		h0.023c0.039-0.08,0.119-0.208,0.24-0.382s0.277-0.366,0.469-0.576s0.416-0.429,0.674-0.655s0.545-0.432,0.861-0.618
		s0.658-0.338,1.025-0.455s0.762-0.176,1.184-0.176c0.18,0,0.332,0.013,0.457,0.036c0.125,0.024,0.23,0.057,0.316,0.097v2.964
		c-0.133-0.1-0.32-0.189-0.563-0.27s-0.516-0.12-0.82-0.12c-0.438,0-0.834,0.03-1.189,0.093c-0.355,0.062-0.676,0.144-0.961,0.246
		c-0.285,0.104-0.537,0.218-0.756,0.346c-0.219,0.127-0.41,0.252-0.574,0.375v8.21h3.082v1.359h-7.594V126.397z"/>
	<path fill="#FFFFFF" d="M446.06,110.178l-1.934-0.234v-1.102l3.949-0.504h0.059l0.586,0.398v7.16
		c0.195-0.195,0.424-0.387,0.686-0.574s0.551-0.355,0.867-0.504s0.66-0.268,1.031-0.357s0.771-0.135,1.201-0.135
		c0.68,0,1.334,0.118,1.963,0.353c0.629,0.236,1.186,0.605,1.67,1.11c0.484,0.504,0.871,1.152,1.16,1.944s0.434,1.744,0.434,2.857
		c0,0.986-0.16,1.909-0.48,2.769c-0.32,0.858-0.779,1.608-1.377,2.247s-1.324,1.143-2.18,1.513s-1.822,0.555-2.9,0.555
		c-0.609,0-1.186-0.033-1.729-0.1s-1.023-0.148-1.441-0.246s-0.764-0.199-1.037-0.305s-0.449-0.197-0.527-0.275V110.178z
		 M448.72,125.613c0.055,0.117,0.152,0.22,0.293,0.308s0.311,0.163,0.51,0.226c0.199,0.062,0.424,0.107,0.674,0.137
		s0.508,0.044,0.773,0.044c0.555,0,1.066-0.108,1.535-0.326s0.875-0.548,1.219-0.989c0.344-0.442,0.613-0.999,0.809-1.67
		s0.301-1.456,0.316-2.355c0.008-0.84-0.074-1.564-0.246-2.172c-0.172-0.609-0.412-1.111-0.721-1.51s-0.672-0.691-1.09-0.879
		s-0.873-0.282-1.365-0.282c-0.313,0-0.607,0.039-0.885,0.116s-0.531,0.178-0.762,0.301c-0.23,0.125-0.436,0.258-0.615,0.4
		c-0.18,0.144-0.328,0.281-0.445,0.412V125.613z"/>
	<path fill="#FFFFFF" d="M459.195,121.017c0-1.001,0.156-1.912,0.469-2.734s0.748-1.525,1.307-2.112s1.223-1.04,1.992-1.362
		c0.77-0.32,1.611-0.481,2.525-0.481c1.5,0,2.66,0.371,3.48,1.114c0.82,0.742,1.258,1.828,1.313,3.256
		c0.008,0.457,0.002,0.856-0.018,1.199s-0.061,0.643-0.123,0.899h-8.121c0.023,0.891,0.146,1.656,0.369,2.297
		s0.512,1.166,0.867,1.576s0.77,0.713,1.242,0.908s0.975,0.293,1.506,0.293c0.336,0,0.676-0.031,1.02-0.094s0.674-0.146,0.99-0.252
		s0.609-0.223,0.879-0.352s0.494-0.264,0.674-0.404l0.492,1.125c-0.219,0.228-0.504,0.447-0.855,0.662s-0.74,0.404-1.166,0.568
		s-0.881,0.297-1.365,0.398s-0.973,0.152-1.465,0.152c-1.008,0-1.889-0.163-2.643-0.487c-0.754-0.325-1.381-0.783-1.881-1.373
		s-0.873-1.293-1.119-2.107S459.195,121.996,459.195,121.017z M467.469,119.436c0.016-0.134,0.027-0.28,0.035-0.438
		s0.012-0.3,0.012-0.428c0-0.389-0.047-0.754-0.141-1.097c-0.094-0.342-0.24-0.642-0.439-0.899
		c-0.199-0.259-0.459-0.461-0.779-0.608c-0.32-0.148-0.715-0.222-1.184-0.222c-0.398,0-0.77,0.059-1.113,0.177
		c-0.344,0.117-0.646,0.318-0.908,0.604c-0.262,0.284-0.473,0.663-0.633,1.136c-0.16,0.474-0.26,1.064-0.299,1.775H467.469z"/>
	<path fill="#FFFFFF" d="M471.617,126.385l1.898-0.199v-9.82l-1.699-0.48v-1.383l3.727-0.48h0.059l0.598,0.457v11.707l1.875,0.199
		v1.277h-6.457V126.385z M473.861,111.532c-0.191-0.082-0.354-0.195-0.486-0.34s-0.236-0.314-0.311-0.51s-0.111-0.406-0.111-0.633
		c0-0.25,0.037-0.488,0.111-0.715s0.186-0.428,0.334-0.604s0.332-0.316,0.551-0.422s0.473-0.158,0.762-0.158h0.012
		c0.258,0,0.486,0.045,0.686,0.135s0.367,0.211,0.504,0.363s0.24,0.326,0.311,0.521s0.105,0.398,0.105,0.609
		c0,0.258-0.037,0.502-0.111,0.732s-0.188,0.43-0.34,0.598s-0.344,0.301-0.574,0.398s-0.498,0.146-0.803,0.146h-0.012
		C474.261,111.655,474.052,111.614,473.861,111.532z"/>
	<path fill="#FFFFFF" d="M480.663,116.014h-1.676v-1.113c0.102-0.024,0.217-0.06,0.346-0.106c0.129-0.045,0.258-0.091,0.387-0.137
		c0.129-0.045,0.246-0.091,0.352-0.137c0.105-0.045,0.182-0.084,0.229-0.118c0.133-0.099,0.25-0.226,0.352-0.38
		c0.102-0.152,0.195-0.35,0.281-0.591c0.063-0.149,0.137-0.351,0.223-0.604s0.17-0.515,0.252-0.784s0.158-0.528,0.229-0.777
		s0.121-0.443,0.152-0.585h1.523l0.023,3.656h3.938v1.676h-3.926v6.943c0,0.658,0.012,1.175,0.035,1.55s0.08,0.654,0.17,0.838
		s0.225,0.298,0.404,0.344s0.422,0.068,0.727,0.068h0.012c0.219,0,0.455-0.015,0.709-0.045s0.498-0.068,0.732-0.113
		c0.234-0.046,0.451-0.095,0.65-0.148c0.199-0.053,0.357-0.102,0.475-0.146h0.012l0.398,1.121c-0.18,0.145-0.426,0.29-0.738,0.438
		s-0.656,0.279-1.031,0.396c-0.375,0.118-0.762,0.217-1.16,0.296s-0.773,0.119-1.125,0.119h-0.023c-0.461,0-0.873-0.046-1.236-0.138
		s-0.67-0.244-0.92-0.459s-0.441-0.495-0.574-0.844c-0.133-0.348-0.199-0.774-0.199-1.279V116.014z"/>
	<path fill="#FFFFFF" d="M489.932,125.694c0-0.242,0.043-0.461,0.129-0.656s0.199-0.363,0.34-0.504s0.305-0.248,0.492-0.322
		s0.383-0.111,0.586-0.111h0.141c0.289,0,0.553,0.068,0.791,0.205s0.443,0.334,0.615,0.592s0.303,0.57,0.393,0.938
		s0.135,0.781,0.135,1.242c0,0.695-0.092,1.361-0.275,1.998s-0.418,1.213-0.703,1.729s-0.6,0.959-0.943,1.33
		s-0.676,0.643-0.996,0.814h-0.023l-0.785-0.645v-0.281c0.141-0.117,0.299-0.268,0.475-0.451s0.338-0.406,0.486-0.668
		s0.273-0.566,0.375-0.914s0.152-0.74,0.152-1.178c0-0.281-0.033-0.518-0.1-0.709s-0.152-0.359-0.258-0.504
		s-0.217-0.275-0.334-0.393s-0.229-0.244-0.334-0.381s-0.191-0.293-0.258-0.469S489.932,125.959,489.932,125.694z"/>
	<path fill="#FFFFFF" d="M502.786,126.315l1.969-0.281v-14.49l-1.934-0.284v-1.433h3.188c0.367,0,0.709,0,1.025,0s0.623,0,0.92,0
		s0.588,0,0.873,0s0.576,0,0.873,0c1.133,0,2.096,0.087,2.889,0.261s1.439,0.43,1.939,0.767s0.863,0.747,1.09,1.231
		s0.34,1.037,0.34,1.658c0,0.537-0.08,1.041-0.24,1.51s-0.393,0.891-0.697,1.266s-0.68,0.691-1.125,0.948s-0.953,0.438-1.523,0.545
		c0.742,0,1.412,0.097,2.01,0.29s1.107,0.475,1.529,0.842c0.422,0.368,0.746,0.815,0.973,1.342s0.34,1.115,0.34,1.766
		c0,0.704-0.117,1.384-0.352,2.037c-0.234,0.654-0.633,1.231-1.195,1.73c-0.563,0.5-1.316,0.898-2.262,1.196
		s-2.125,0.447-3.539,0.447c-0.32,0-0.617,0-0.891,0s-0.555,0-0.844,0s-0.602,0-0.938,0s-0.727,0-1.172,0h-3.246V126.315z
		 M507.485,126.151c0.102,0.054,0.244,0.099,0.428,0.134c0.184,0.036,0.383,0.054,0.598,0.054s0.436,0,0.662,0s0.438,0,0.633,0
		c0.805,0,1.49-0.085,2.057-0.257c0.566-0.171,1.025-0.414,1.377-0.729s0.607-0.7,0.768-1.154c0.16-0.455,0.24-0.971,0.24-1.546
		c0-0.646-0.076-1.195-0.229-1.65c-0.152-0.454-0.391-0.827-0.715-1.119s-0.742-0.505-1.254-0.642
		c-0.512-0.136-1.123-0.204-1.834-0.204c-0.203,0-0.432,0-0.686,0s-0.508,0-0.762,0s-0.494,0-0.721,0s-0.414,0-0.563,0V126.151z
		 M507.497,117.503c0.148,0.023,0.328,0.034,0.539,0.034s0.43,0,0.656,0s0.445,0,0.656,0s0.395,0,0.551,0
		c1.133,0,1.969-0.283,2.508-0.85c0.539-0.567,0.809-1.397,0.809-2.493c0-0.524-0.063-0.98-0.188-1.369
		c-0.125-0.387-0.33-0.709-0.615-0.963c-0.285-0.256-0.66-0.447-1.125-0.576c-0.465-0.13-1.041-0.194-1.729-0.194
		c-0.5,0-0.926,0.024-1.277,0.075c-0.352,0.049-0.613,0.084-0.785,0.104V117.503z"/>
	<path fill="#FFFFFF" d="M519.813,115.698l-1.301-0.434v-1.137l3.469-0.352h0.012l0.492,0.316v8.273c0,0.641,0.033,1.186,0.1,1.635
		s0.188,0.814,0.363,1.096s0.416,0.484,0.721,0.609s0.695,0.188,1.172,0.188c0.344,0,0.67-0.039,0.979-0.117s0.592-0.176,0.85-0.293
		s0.492-0.242,0.703-0.375s0.387-0.258,0.527-0.375v-9.023l-1.676-0.457v-1.137l3.703-0.34h0.023l0.621,0.316v11.988h1.406v1.172
		c-0.273,0.087-0.605,0.178-0.996,0.275s-0.832,0.146-1.324,0.146c-0.484,0-0.85-0.092-1.096-0.275s-0.369-0.51-0.369-0.979v-0.609
		c-0.211,0.211-0.471,0.426-0.779,0.645s-0.646,0.418-1.014,0.598s-0.758,0.328-1.172,0.445s-0.832,0.176-1.254,0.176
		c-0.727,0-1.352-0.096-1.875-0.287s-0.955-0.494-1.295-0.908s-0.59-0.949-0.75-1.605s-0.24-1.449-0.24-2.379V115.698z
		 M522.051,111.631c-0.227,0-0.43-0.041-0.609-0.123s-0.334-0.195-0.463-0.34s-0.229-0.314-0.299-0.51s-0.105-0.406-0.105-0.633
		c0-0.242,0.035-0.477,0.105-0.703s0.178-0.428,0.322-0.604s0.324-0.314,0.539-0.416s0.467-0.152,0.756-0.152h0.012
		c0.25,0,0.473,0.045,0.668,0.135s0.357,0.211,0.486,0.363s0.227,0.326,0.293,0.521s0.1,0.395,0.1,0.598
		c0,0.258-0.037,0.5-0.111,0.727s-0.186,0.424-0.334,0.592s-0.334,0.301-0.557,0.398s-0.486,0.146-0.791,0.146H522.051z
		 M527.523,111.631c-0.219,0-0.418-0.043-0.598-0.129s-0.334-0.201-0.463-0.346s-0.229-0.314-0.299-0.51s-0.105-0.402-0.105-0.621
		c0-0.242,0.035-0.477,0.105-0.703s0.178-0.428,0.322-0.604s0.324-0.314,0.539-0.416s0.467-0.152,0.756-0.152h0.012
		c0.258,0,0.482,0.045,0.674,0.135s0.354,0.211,0.486,0.363s0.232,0.326,0.299,0.521s0.1,0.395,0.1,0.598
		c0,0.258-0.037,0.5-0.111,0.727s-0.186,0.424-0.334,0.592s-0.336,0.301-0.563,0.398s-0.496,0.146-0.809,0.146H527.523z"/>
	<path fill="#FFFFFF" d="M533.429,126.397l1.84-0.183v-9.497l-1.664-0.469v-1.406l3.352-0.469h0.059l0.563,0.457v0.77l-0.023,1.589
		h0.023c0.039-0.08,0.119-0.208,0.24-0.382s0.277-0.366,0.469-0.576s0.416-0.429,0.674-0.655s0.545-0.432,0.861-0.618
		s0.658-0.338,1.025-0.455s0.762-0.176,1.184-0.176c0.18,0,0.332,0.013,0.457,0.036c0.125,0.024,0.23,0.057,0.316,0.097v2.964
		c-0.133-0.1-0.32-0.189-0.563-0.27s-0.516-0.12-0.82-0.12c-0.438,0-0.834,0.03-1.189,0.093c-0.355,0.062-0.676,0.144-0.961,0.246
		c-0.285,0.104-0.537,0.218-0.756,0.346c-0.219,0.127-0.41,0.252-0.574,0.375v8.21h3.082v1.359h-7.594V126.397z"/>
	<path fill="#FFFFFF" d="M543.94,130.417c0-0.383,0.063-0.746,0.188-1.09s0.289-0.658,0.492-0.943s0.436-0.535,0.697-0.75
		s0.529-0.393,0.803-0.533c-0.367-0.203-0.648-0.464-0.844-0.785c-0.195-0.32-0.293-0.715-0.293-1.184
		c0-0.305,0.045-0.596,0.135-0.873s0.217-0.535,0.381-0.773s0.357-0.457,0.58-0.656s0.467-0.373,0.732-0.521
		c-0.781-0.342-1.381-0.823-1.799-1.443s-0.627-1.358-0.627-2.212c0-0.684,0.158-1.293,0.475-1.828s0.734-0.986,1.254-1.354
		s1.113-0.65,1.781-0.847c0.668-0.197,1.357-0.296,2.068-0.296h0.012c0.836,0,1.59,0.094,2.262,0.281s1.242,0.473,1.711,0.855
		c0.078-0.092,0.197-0.202,0.357-0.333c0.16-0.13,0.354-0.254,0.58-0.373s0.488-0.221,0.785-0.305s0.625-0.126,0.984-0.126h0.633
		v2.25h-2.461c0.133,0.257,0.234,0.53,0.305,0.819c0.07,0.29,0.105,0.607,0.105,0.951c0,0.676-0.141,1.289-0.422,1.844
		c-0.281,0.553-0.672,1.027-1.172,1.424s-1.088,0.702-1.764,0.919c-0.676,0.216-1.408,0.324-2.197,0.324h-0.012
		c-0.641,0-1.238-0.066-1.793-0.199c-0.211,0.188-0.381,0.408-0.51,0.662s-0.193,0.518-0.193,0.791c0,0.297,0.053,0.539,0.158,0.727
		s0.266,0.334,0.48,0.439s0.488,0.178,0.82,0.217s0.725,0.059,1.178,0.059h2.555c1.57,0,2.727,0.297,3.469,0.891
		s1.113,1.469,1.113,2.625c0,0.461-0.086,0.906-0.258,1.336s-0.414,0.828-0.727,1.195s-0.686,0.703-1.119,1.008
		s-0.91,0.566-1.43,0.785s-1.074,0.387-1.664,0.504s-1.197,0.176-1.822,0.176h-0.012c-1.094,0-2.02-0.088-2.777-0.264
		s-1.375-0.422-1.852-0.738s-0.82-0.699-1.031-1.148S543.94,130.971,543.94,130.417z M546.565,129.725
		c0,0.453,0.063,0.855,0.188,1.207s0.328,0.65,0.609,0.896s0.648,0.434,1.102,0.563s1.008,0.193,1.664,0.193h0.023
		c0.508,0,1.012-0.061,1.512-0.182s0.947-0.301,1.342-0.539s0.713-0.533,0.955-0.885s0.363-0.762,0.363-1.23
		c0-0.352-0.037-0.658-0.111-0.92s-0.215-0.479-0.422-0.65s-0.496-0.301-0.867-0.387s-0.85-0.129-1.436-0.129h-2.355
		c-0.344,0-0.666-0.014-0.967-0.041s-0.584-0.064-0.85-0.111c-0.203,0.25-0.379,0.555-0.527,0.914S546.565,129.217,546.565,129.725z
		 M549.94,121.463c0.461,0,0.852-0.065,1.172-0.196c0.32-0.132,0.582-0.323,0.785-0.575c0.203-0.251,0.352-0.558,0.445-0.919
		s0.141-0.771,0.141-1.23c0-0.992-0.219-1.714-0.656-2.166c-0.438-0.453-1.105-0.679-2.004-0.679h-0.012
		c-0.398,0-0.76,0.048-1.084,0.142c-0.324,0.096-0.604,0.248-0.838,0.46s-0.416,0.493-0.545,0.843s-0.193,0.78-0.193,1.291
		c0,0.423,0.049,0.818,0.146,1.188c0.098,0.367,0.254,0.688,0.469,0.963c0.215,0.273,0.5,0.488,0.855,0.645
		c0.355,0.157,0.791,0.235,1.307,0.235H549.94z"/>
	<path fill="#FFFFFF" d="M558.014,121.017c0-1.001,0.156-1.912,0.469-2.734s0.748-1.525,1.307-2.112s1.223-1.04,1.992-1.362
		c0.77-0.32,1.611-0.481,2.525-0.481c1.5,0,2.66,0.371,3.48,1.114c0.82,0.742,1.258,1.828,1.313,3.256
		c0.008,0.457,0.002,0.856-0.018,1.199s-0.061,0.643-0.123,0.899h-8.121c0.023,0.891,0.146,1.656,0.369,2.297
		s0.512,1.166,0.867,1.576s0.77,0.713,1.242,0.908s0.975,0.293,1.506,0.293c0.336,0,0.676-0.031,1.02-0.094s0.674-0.146,0.99-0.252
		s0.609-0.223,0.879-0.352s0.494-0.264,0.674-0.404l0.492,1.125c-0.219,0.228-0.504,0.447-0.855,0.662s-0.74,0.404-1.166,0.568
		s-0.881,0.297-1.365,0.398s-0.973,0.152-1.465,0.152c-1.008,0-1.889-0.163-2.643-0.487c-0.754-0.325-1.381-0.783-1.881-1.373
		s-0.873-1.293-1.119-2.107S558.014,121.996,558.014,121.017z M566.287,119.436c0.016-0.134,0.027-0.28,0.035-0.438
		s0.012-0.3,0.012-0.428c0-0.389-0.047-0.754-0.141-1.097c-0.094-0.342-0.24-0.642-0.439-0.899
		c-0.199-0.259-0.459-0.461-0.779-0.608c-0.32-0.148-0.715-0.222-1.184-0.222c-0.398,0-0.77,0.059-1.113,0.177
		c-0.344,0.117-0.646,0.318-0.908,0.604c-0.262,0.284-0.473,0.663-0.633,1.136c-0.16,0.474-0.26,1.064-0.299,1.775H566.287z"/>
	<path fill="#FFFFFF" d="M570.611,126.397l1.84-0.183v-9.497l-1.664-0.469v-1.406l3.352-0.469h0.059l0.563,0.457v0.77l-0.023,1.589
		h0.023c0.039-0.08,0.119-0.208,0.24-0.382s0.277-0.366,0.469-0.576s0.416-0.429,0.674-0.655s0.545-0.432,0.861-0.618
		s0.658-0.338,1.025-0.455s0.762-0.176,1.184-0.176c0.18,0,0.332,0.013,0.457,0.036c0.125,0.024,0.23,0.057,0.316,0.097v2.964
		c-0.133-0.1-0.32-0.189-0.563-0.27s-0.516-0.12-0.82-0.12c-0.438,0-0.834,0.03-1.189,0.093c-0.355,0.062-0.676,0.144-0.961,0.246
		c-0.285,0.104-0.537,0.218-0.756,0.346c-0.219,0.127-0.41,0.252-0.574,0.375v8.21h3.082v1.359h-7.594V126.397z"/>
	<path fill="#FFFFFF" d="M581.919,110.178l-1.934-0.234v-1.102l3.949-0.504h0.059l0.586,0.398v7.16
		c0.195-0.195,0.424-0.387,0.686-0.574s0.551-0.355,0.867-0.504s0.66-0.268,1.031-0.357s0.771-0.135,1.201-0.135
		c0.68,0,1.334,0.118,1.963,0.353c0.629,0.236,1.186,0.605,1.67,1.11c0.484,0.504,0.871,1.152,1.16,1.944s0.434,1.744,0.434,2.857
		c0,0.986-0.16,1.909-0.48,2.769c-0.32,0.858-0.779,1.608-1.377,2.247s-1.324,1.143-2.18,1.513s-1.822,0.555-2.9,0.555
		c-0.609,0-1.186-0.033-1.729-0.1s-1.023-0.148-1.441-0.246s-0.764-0.199-1.037-0.305s-0.449-0.197-0.527-0.275V110.178z
		 M584.579,125.613c0.055,0.117,0.152,0.22,0.293,0.308s0.311,0.163,0.51,0.226c0.199,0.062,0.424,0.107,0.674,0.137
		s0.508,0.044,0.773,0.044c0.555,0,1.066-0.108,1.535-0.326s0.875-0.548,1.219-0.989c0.344-0.442,0.613-0.999,0.809-1.67
		s0.301-1.456,0.316-2.355c0.008-0.84-0.074-1.564-0.246-2.172c-0.172-0.609-0.412-1.111-0.721-1.51s-0.672-0.691-1.09-0.879
		s-0.873-0.282-1.365-0.282c-0.313,0-0.607,0.039-0.885,0.116s-0.531,0.178-0.762,0.301c-0.23,0.125-0.436,0.258-0.615,0.4
		c-0.18,0.144-0.328,0.281-0.445,0.412V125.613z"/>
	<path fill="#FFFFFF" d="M595.055,121.017c0-1.001,0.156-1.912,0.469-2.734s0.748-1.525,1.307-2.112s1.223-1.04,1.992-1.362
		c0.77-0.32,1.611-0.481,2.525-0.481c1.5,0,2.66,0.371,3.48,1.114c0.82,0.742,1.258,1.828,1.313,3.256
		c0.008,0.457,0.002,0.856-0.018,1.199s-0.061,0.643-0.123,0.899h-8.121c0.023,0.891,0.146,1.656,0.369,2.297
		s0.512,1.166,0.867,1.576s0.77,0.713,1.242,0.908s0.975,0.293,1.506,0.293c0.336,0,0.676-0.031,1.02-0.094s0.674-0.146,0.99-0.252
		s0.609-0.223,0.879-0.352s0.494-0.264,0.674-0.404l0.492,1.125c-0.219,0.228-0.504,0.447-0.855,0.662s-0.74,0.404-1.166,0.568
		s-0.881,0.297-1.365,0.398s-0.973,0.152-1.465,0.152c-1.008,0-1.889-0.163-2.643-0.487c-0.754-0.325-1.381-0.783-1.881-1.373
		s-0.873-1.293-1.119-2.107S595.055,121.996,595.055,121.017z M603.328,119.436c0.016-0.134,0.027-0.28,0.035-0.438
		s0.012-0.3,0.012-0.428c0-0.389-0.047-0.754-0.141-1.097c-0.094-0.342-0.24-0.642-0.439-0.899
		c-0.199-0.259-0.459-0.461-0.779-0.608c-0.32-0.148-0.715-0.222-1.184-0.222c-0.398,0-0.77,0.059-1.113,0.177
		c-0.344,0.117-0.646,0.318-0.908,0.604c-0.262,0.284-0.473,0.663-0.633,1.136c-0.16,0.474-0.26,1.064-0.299,1.775H603.328z"/>
	<path fill="#FFFFFF" d="M609.022,116.014h-1.676v-1.113c0.102-0.024,0.217-0.06,0.346-0.106c0.129-0.045,0.258-0.091,0.387-0.137
		c0.129-0.045,0.246-0.091,0.352-0.137c0.105-0.045,0.182-0.084,0.229-0.118c0.133-0.099,0.25-0.226,0.352-0.38
		c0.102-0.152,0.195-0.35,0.281-0.591c0.063-0.149,0.137-0.351,0.223-0.604s0.17-0.515,0.252-0.784s0.158-0.528,0.229-0.777
		s0.121-0.443,0.152-0.585h1.523l0.023,3.656h3.938v1.676h-3.926v6.943c0,0.658,0.012,1.175,0.035,1.55s0.08,0.654,0.17,0.838
		s0.225,0.298,0.404,0.344s0.422,0.068,0.727,0.068h0.012c0.219,0,0.455-0.015,0.709-0.045s0.498-0.068,0.732-0.113
		c0.234-0.046,0.451-0.095,0.65-0.148c0.199-0.053,0.357-0.102,0.475-0.146h0.012l0.398,1.121c-0.18,0.145-0.426,0.29-0.738,0.438
		s-0.656,0.279-1.031,0.396c-0.375,0.118-0.762,0.217-1.16,0.296s-0.773,0.119-1.125,0.119h-0.023c-0.461,0-0.873-0.046-1.236-0.138
		s-0.67-0.244-0.92-0.459s-0.441-0.495-0.574-0.844c-0.133-0.348-0.199-0.774-0.199-1.279V116.014z"/>
	<path fill="#FFFFFF" d="M616.804,121.017c0-1.001,0.156-1.912,0.469-2.734s0.748-1.525,1.307-2.112s1.223-1.04,1.992-1.362
		c0.77-0.32,1.611-0.481,2.525-0.481c1.5,0,2.66,0.371,3.48,1.114c0.82,0.742,1.258,1.828,1.313,3.256
		c0.008,0.457,0.002,0.856-0.018,1.199s-0.061,0.643-0.123,0.899h-8.121c0.023,0.891,0.146,1.656,0.369,2.297
		s0.512,1.166,0.867,1.576s0.77,0.713,1.242,0.908s0.975,0.293,1.506,0.293c0.336,0,0.676-0.031,1.02-0.094s0.674-0.146,0.99-0.252
		s0.609-0.223,0.879-0.352s0.494-0.264,0.674-0.404l0.492,1.125c-0.219,0.228-0.504,0.447-0.855,0.662s-0.74,0.404-1.166,0.568
		s-0.881,0.297-1.365,0.398s-0.973,0.152-1.465,0.152c-1.008,0-1.889-0.163-2.643-0.487c-0.754-0.325-1.381-0.783-1.881-1.373
		s-0.873-1.293-1.119-2.107S616.804,121.996,616.804,121.017z M625.077,119.436c0.016-0.134,0.027-0.28,0.035-0.438
		s0.012-0.3,0.012-0.428c0-0.389-0.047-0.754-0.141-1.097c-0.094-0.342-0.24-0.642-0.439-0.899
		c-0.199-0.259-0.459-0.461-0.779-0.608c-0.32-0.148-0.715-0.222-1.184-0.222c-0.398,0-0.77,0.059-1.113,0.177
		c-0.344,0.117-0.646,0.318-0.908,0.604c-0.262,0.284-0.473,0.663-0.633,1.136c-0.16,0.474-0.26,1.064-0.299,1.775H625.077z"/>
	<path fill="#FFFFFF" d="M629.225,126.385l1.898-0.199v-9.82l-1.699-0.48v-1.383l3.727-0.48h0.059l0.598,0.457v11.707l1.875,0.199
		v1.277h-6.457V126.385z M631.469,111.532c-0.191-0.082-0.354-0.195-0.486-0.34s-0.236-0.314-0.311-0.51s-0.111-0.406-0.111-0.633
		c0-0.25,0.037-0.488,0.111-0.715s0.186-0.428,0.334-0.604s0.332-0.316,0.551-0.422s0.473-0.158,0.762-0.158h0.012
		c0.258,0,0.486,0.045,0.686,0.135s0.367,0.211,0.504,0.363s0.24,0.326,0.311,0.521s0.105,0.398,0.105,0.609
		c0,0.258-0.037,0.502-0.111,0.732s-0.188,0.43-0.34,0.598s-0.344,0.301-0.574,0.398s-0.498,0.146-0.803,0.146h-0.012
		C631.869,111.655,631.66,111.614,631.469,111.532z"/>
	<path fill="#FFFFFF" d="M636.665,126.385l1.898-0.199v-16.348l-1.922-0.234v-1.113l3.996-0.504h0.023l0.574,0.398v17.801
		l1.992,0.199v1.277h-6.563V126.385z"/>
	<path fill="#FFFFFF" d="M644.259,126.385l1.898-0.199v-9.82l-1.699-0.48v-1.383l3.727-0.48h0.059l0.598,0.457v11.707l1.875,0.199
		v1.277h-6.457V126.385z M646.503,111.532c-0.191-0.082-0.354-0.195-0.486-0.34s-0.236-0.314-0.311-0.51s-0.111-0.406-0.111-0.633
		c0-0.25,0.037-0.488,0.111-0.715s0.186-0.428,0.334-0.604s0.332-0.316,0.551-0.422s0.473-0.158,0.762-0.158h0.012
		c0.258,0,0.486,0.045,0.686,0.135s0.367,0.211,0.504,0.363s0.24,0.326,0.311,0.521s0.105,0.398,0.105,0.609
		c0,0.258-0.037,0.502-0.111,0.732s-0.188,0.43-0.34,0.598s-0.344,0.301-0.574,0.398s-0.498,0.146-0.803,0.146h-0.012
		C646.903,111.655,646.694,111.614,646.503,111.532z"/>
	<path fill="#FFFFFF" d="M651.922,130.417c0-0.383,0.063-0.746,0.188-1.09s0.289-0.658,0.492-0.943s0.436-0.535,0.697-0.75
		s0.529-0.393,0.803-0.533c-0.367-0.203-0.648-0.464-0.844-0.785c-0.195-0.32-0.293-0.715-0.293-1.184
		c0-0.305,0.045-0.596,0.135-0.873s0.217-0.535,0.381-0.773s0.357-0.457,0.58-0.656s0.467-0.373,0.732-0.521
		c-0.781-0.342-1.381-0.823-1.799-1.443s-0.627-1.358-0.627-2.212c0-0.684,0.158-1.293,0.475-1.828s0.734-0.986,1.254-1.354
		s1.113-0.65,1.781-0.847c0.668-0.197,1.357-0.296,2.068-0.296h0.012c0.836,0,1.59,0.094,2.262,0.281s1.242,0.473,1.711,0.855
		c0.078-0.092,0.197-0.202,0.357-0.333c0.16-0.13,0.354-0.254,0.58-0.373s0.488-0.221,0.785-0.305s0.625-0.126,0.984-0.126h0.633
		v2.25h-2.461c0.133,0.257,0.234,0.53,0.305,0.819c0.07,0.29,0.105,0.607,0.105,0.951c0,0.676-0.141,1.289-0.422,1.844
		c-0.281,0.553-0.672,1.027-1.172,1.424s-1.088,0.702-1.764,0.919c-0.676,0.216-1.408,0.324-2.197,0.324h-0.012
		c-0.641,0-1.238-0.066-1.793-0.199c-0.211,0.188-0.381,0.408-0.51,0.662s-0.193,0.518-0.193,0.791c0,0.297,0.053,0.539,0.158,0.727
		s0.266,0.334,0.48,0.439s0.488,0.178,0.82,0.217s0.725,0.059,1.178,0.059h2.555c1.57,0,2.727,0.297,3.469,0.891
		s1.113,1.469,1.113,2.625c0,0.461-0.086,0.906-0.258,1.336s-0.414,0.828-0.727,1.195s-0.686,0.703-1.119,1.008
		s-0.91,0.566-1.43,0.785s-1.074,0.387-1.664,0.504s-1.197,0.176-1.822,0.176h-0.012c-1.094,0-2.02-0.088-2.777-0.264
		s-1.375-0.422-1.852-0.738s-0.82-0.699-1.031-1.148S651.922,130.971,651.922,130.417z M654.547,129.725
		c0,0.453,0.063,0.855,0.188,1.207s0.328,0.65,0.609,0.896s0.648,0.434,1.102,0.563s1.008,0.193,1.664,0.193h0.023
		c0.508,0,1.012-0.061,1.512-0.182s0.947-0.301,1.342-0.539s0.713-0.533,0.955-0.885s0.363-0.762,0.363-1.23
		c0-0.352-0.037-0.658-0.111-0.92s-0.215-0.479-0.422-0.65s-0.496-0.301-0.867-0.387s-0.85-0.129-1.436-0.129h-2.355
		c-0.344,0-0.666-0.014-0.967-0.041s-0.584-0.064-0.85-0.111c-0.203,0.25-0.379,0.555-0.527,0.914S654.547,129.217,654.547,129.725z
		 M657.922,121.463c0.461,0,0.852-0.065,1.172-0.196c0.32-0.132,0.582-0.323,0.785-0.575c0.203-0.251,0.352-0.558,0.445-0.919
		s0.141-0.771,0.141-1.23c0-0.992-0.219-1.714-0.656-2.166c-0.438-0.453-1.105-0.679-2.004-0.679h-0.012
		c-0.398,0-0.76,0.048-1.084,0.142c-0.324,0.096-0.604,0.248-0.838,0.46s-0.416,0.493-0.545,0.843s-0.193,0.78-0.193,1.291
		c0,0.423,0.049,0.818,0.146,1.188c0.098,0.367,0.254,0.688,0.469,0.963c0.215,0.273,0.5,0.488,0.855,0.645
		c0.355,0.157,0.791,0.235,1.307,0.235H657.922z"/>
	<path fill="#FFFFFF" d="M667.261,115.698l-1.301-0.434v-1.137l3.469-0.352h0.012l0.492,0.316v8.273c0,0.641,0.033,1.186,0.1,1.635
		s0.188,0.814,0.363,1.096s0.416,0.484,0.721,0.609s0.695,0.188,1.172,0.188c0.344,0,0.67-0.039,0.979-0.117s0.592-0.176,0.85-0.293
		s0.492-0.242,0.703-0.375s0.387-0.258,0.527-0.375v-9.023l-1.676-0.457v-1.137l3.703-0.34h0.023l0.621,0.316v11.988h1.406v1.172
		c-0.273,0.087-0.605,0.178-0.996,0.275s-0.832,0.146-1.324,0.146c-0.484,0-0.85-0.092-1.096-0.275s-0.369-0.51-0.369-0.979v-0.609
		c-0.211,0.211-0.471,0.426-0.779,0.645s-0.646,0.418-1.014,0.598s-0.758,0.328-1.172,0.445s-0.832,0.176-1.254,0.176
		c-0.727,0-1.352-0.096-1.875-0.287s-0.955-0.494-1.295-0.908s-0.59-0.949-0.75-1.605s-0.24-1.449-0.24-2.379V115.698z"/>
	<path fill="#FFFFFF" d="M680.983,126.425l1.535-0.193v-9.514l-1.676-0.453v-1.481l3.469-0.469h0.059l0.551,0.457v0.995
		l-0.012,0.565c0.258-0.243,0.574-0.483,0.949-0.724c0.375-0.238,0.779-0.453,1.213-0.645c0.434-0.189,0.883-0.344,1.348-0.461
		c0.465-0.118,0.916-0.177,1.354-0.177c0.766,0,1.396,0.104,1.893,0.31c0.496,0.207,0.889,0.53,1.178,0.971
		c0.289,0.439,0.49,1.002,0.604,1.688s0.17,1.502,0.17,2.451v6.486l1.688,0.193v1.237h-5.883v-1.237l1.5-0.193v-6.475
		c0-0.617-0.029-1.152-0.088-1.606s-0.172-0.829-0.34-1.127s-0.406-0.519-0.715-0.663c-0.309-0.146-0.713-0.218-1.213-0.218
		c-0.297,0-0.6,0.036-0.908,0.108s-0.609,0.17-0.902,0.29s-0.572,0.257-0.838,0.41s-0.504,0.31-0.715,0.471v8.81l1.617,0.193v1.237
		h-5.836V126.425z"/>
	<path fill="#FFFFFF" d="M696.451,130.417c0-0.383,0.063-0.746,0.188-1.09s0.289-0.658,0.492-0.943s0.436-0.535,0.697-0.75
		s0.529-0.393,0.803-0.533c-0.367-0.203-0.648-0.464-0.844-0.785c-0.195-0.32-0.293-0.715-0.293-1.184
		c0-0.305,0.045-0.596,0.135-0.873s0.217-0.535,0.381-0.773s0.357-0.457,0.58-0.656s0.467-0.373,0.732-0.521
		c-0.781-0.342-1.381-0.823-1.799-1.443s-0.627-1.358-0.627-2.212c0-0.684,0.158-1.293,0.475-1.828s0.734-0.986,1.254-1.354
		s1.113-0.65,1.781-0.847c0.668-0.197,1.357-0.296,2.068-0.296h0.012c0.836,0,1.59,0.094,2.262,0.281s1.242,0.473,1.711,0.855
		c0.078-0.092,0.197-0.202,0.357-0.333c0.16-0.13,0.354-0.254,0.58-0.373s0.488-0.221,0.785-0.305s0.625-0.126,0.984-0.126h0.633
		v2.25h-2.461c0.133,0.257,0.234,0.53,0.305,0.819c0.07,0.29,0.105,0.607,0.105,0.951c0,0.676-0.141,1.289-0.422,1.844
		c-0.281,0.553-0.672,1.027-1.172,1.424s-1.088,0.702-1.764,0.919c-0.676,0.216-1.408,0.324-2.197,0.324h-0.012
		c-0.641,0-1.238-0.066-1.793-0.199c-0.211,0.188-0.381,0.408-0.51,0.662s-0.193,0.518-0.193,0.791c0,0.297,0.053,0.539,0.158,0.727
		s0.266,0.334,0.48,0.439s0.488,0.178,0.82,0.217s0.725,0.059,1.178,0.059h2.555c1.57,0,2.727,0.297,3.469,0.891
		s1.113,1.469,1.113,2.625c0,0.461-0.086,0.906-0.258,1.336s-0.414,0.828-0.727,1.195s-0.686,0.703-1.119,1.008
		s-0.91,0.566-1.43,0.785s-1.074,0.387-1.664,0.504s-1.197,0.176-1.822,0.176h-0.012c-1.094,0-2.02-0.088-2.777-0.264
		s-1.375-0.422-1.852-0.738s-0.82-0.699-1.031-1.148S696.451,130.971,696.451,130.417z M699.076,129.725
		c0,0.453,0.063,0.855,0.188,1.207s0.328,0.65,0.609,0.896s0.648,0.434,1.102,0.563s1.008,0.193,1.664,0.193h0.023
		c0.508,0,1.012-0.061,1.512-0.182s0.947-0.301,1.342-0.539s0.713-0.533,0.955-0.885s0.363-0.762,0.363-1.23
		c0-0.352-0.037-0.658-0.111-0.92s-0.215-0.479-0.422-0.65s-0.496-0.301-0.867-0.387s-0.85-0.129-1.436-0.129h-2.355
		c-0.344,0-0.666-0.014-0.967-0.041s-0.584-0.064-0.85-0.111c-0.203,0.25-0.379,0.555-0.527,0.914S699.076,129.217,699.076,129.725z
		 M702.451,121.463c0.461,0,0.852-0.065,1.172-0.196c0.32-0.132,0.582-0.323,0.785-0.575c0.203-0.251,0.352-0.558,0.445-0.919
		s0.141-0.771,0.141-1.23c0-0.992-0.219-1.714-0.656-2.166c-0.438-0.453-1.105-0.679-2.004-0.679h-0.012
		c-0.398,0-0.76,0.048-1.084,0.142c-0.324,0.096-0.604,0.248-0.838,0.46s-0.416,0.493-0.545,0.843s-0.193,0.78-0.193,1.291
		c0,0.423,0.049,0.818,0.146,1.188c0.098,0.367,0.254,0.688,0.469,0.963c0.215,0.273,0.5,0.488,0.855,0.645
		c0.355,0.157,0.791,0.235,1.307,0.235H702.451z"/>
	<path fill="#FFFFFF" d="M718.481,115.698l-1.301-0.434v-1.137l3.469-0.352h0.012l0.492,0.316v8.273c0,0.641,0.033,1.186,0.1,1.635
		s0.188,0.814,0.363,1.096s0.416,0.484,0.721,0.609s0.695,0.188,1.172,0.188c0.344,0,0.67-0.039,0.979-0.117s0.592-0.176,0.85-0.293
		s0.492-0.242,0.703-0.375s0.387-0.258,0.527-0.375v-9.023l-1.676-0.457v-1.137l3.703-0.34h0.023l0.621,0.316v11.988h1.406v1.172
		c-0.273,0.087-0.605,0.178-0.996,0.275s-0.832,0.146-1.324,0.146c-0.484,0-0.85-0.092-1.096-0.275s-0.369-0.51-0.369-0.979v-0.609
		c-0.211,0.211-0.471,0.426-0.779,0.645s-0.646,0.418-1.014,0.598s-0.758,0.328-1.172,0.445s-0.832,0.176-1.254,0.176
		c-0.727,0-1.352-0.096-1.875-0.287s-0.955-0.494-1.295-0.908s-0.59-0.949-0.75-1.605s-0.24-1.449-0.24-2.379V115.698z"/>
	<path fill="#FFFFFF" d="M732.203,126.425l1.535-0.193v-9.514l-1.676-0.453v-1.481l3.469-0.469h0.059l0.551,0.457v0.995
		l-0.012,0.565c0.258-0.243,0.574-0.483,0.949-0.724c0.375-0.238,0.779-0.453,1.213-0.645c0.434-0.189,0.883-0.344,1.348-0.461
		c0.465-0.118,0.916-0.177,1.354-0.177c0.766,0,1.396,0.104,1.893,0.31c0.496,0.207,0.889,0.53,1.178,0.971
		c0.289,0.439,0.49,1.002,0.604,1.688s0.17,1.502,0.17,2.451v6.486l1.688,0.193v1.237h-5.883v-1.237l1.5-0.193v-6.475
		c0-0.617-0.029-1.152-0.088-1.606s-0.172-0.829-0.34-1.127s-0.406-0.519-0.715-0.663c-0.309-0.146-0.713-0.218-1.213-0.218
		c-0.297,0-0.6,0.036-0.908,0.108s-0.609,0.17-0.902,0.29s-0.572,0.257-0.838,0.41s-0.504,0.31-0.715,0.471v8.81l1.617,0.193v1.237
		h-5.836V126.425z"/>
	<path fill="#FFFFFF" d="M752.815,127.674c-0.695,0-1.357-0.127-1.986-0.381s-1.184-0.641-1.664-1.16s-0.863-1.177-1.148-1.973
		s-0.428-1.735-0.428-2.818c0-0.972,0.156-1.883,0.469-2.734c0.313-0.853,0.766-1.595,1.359-2.23
		c0.594-0.635,1.318-1.136,2.174-1.501c0.855-0.367,1.826-0.55,2.912-0.55c0.383,0,0.752,0.021,1.107,0.064s0.693,0.096,1.014,0.158
		v-4.371l-2.355-0.234v-1.137l4.371-0.469h0.07l0.574,0.422v17.285h1.383v1.219c-0.328,0.087-0.717,0.176-1.166,0.27
		s-0.92,0.141-1.412,0.141c-0.211,0-0.395-0.014-0.551-0.04c-0.156-0.027-0.287-0.084-0.393-0.17
		c-0.105-0.085-0.184-0.207-0.234-0.366s-0.076-0.366-0.076-0.622v-0.617c-0.211,0.225-0.453,0.445-0.727,0.663
		s-0.578,0.411-0.914,0.582s-0.703,0.309-1.102,0.413C753.694,127.623,753.269,127.674,752.815,127.674z M753.894,126.045
		c0.313,0,0.607-0.042,0.885-0.126c0.277-0.083,0.533-0.189,0.768-0.319s0.441-0.271,0.621-0.427
		c0.18-0.154,0.332-0.307,0.457-0.457v-8.262c-0.063-0.098-0.166-0.191-0.311-0.281s-0.32-0.169-0.527-0.238
		c-0.207-0.068-0.434-0.124-0.68-0.164c-0.246-0.041-0.502-0.062-0.768-0.062c-0.531,0-1.029,0.096-1.494,0.287
		c-0.465,0.19-0.871,0.499-1.219,0.922c-0.348,0.424-0.623,0.975-0.826,1.653s-0.313,1.506-0.328,2.48
		c-0.016,0.877,0.064,1.631,0.24,2.26c0.176,0.631,0.418,1.147,0.727,1.553c0.309,0.404,0.674,0.703,1.096,0.895
		C752.956,125.95,753.409,126.045,753.894,126.045z"/>
	<path fill="#FFFFFF" d="M771.459,126.385l3.059-0.281V111.28h-3.902l-0.879,4.957h-1.699l0.41-6.41h14.836l0.375,6.41h-1.676
		l-0.891-4.957h-3.75v14.824l3.316,0.281v1.277h-9.199V126.385z"/>
	<path fill="#FFFFFF" d="M784.759,126.397l1.84-0.183v-9.497l-1.664-0.469v-1.406l3.352-0.469h0.059l0.563,0.457v0.77l-0.023,1.589
		h0.023c0.039-0.08,0.119-0.208,0.24-0.382s0.277-0.366,0.469-0.576s0.416-0.429,0.674-0.655s0.545-0.432,0.861-0.618
		s0.658-0.338,1.025-0.455s0.762-0.176,1.184-0.176c0.18,0,0.332,0.013,0.457,0.036c0.125,0.024,0.23,0.057,0.316,0.097v2.964
		c-0.133-0.1-0.32-0.189-0.563-0.27s-0.516-0.12-0.82-0.12c-0.438,0-0.834,0.03-1.189,0.093c-0.355,0.062-0.676,0.144-0.961,0.246
		c-0.285,0.104-0.537,0.218-0.756,0.346c-0.219,0.127-0.41,0.252-0.574,0.375v8.21h3.082v1.359h-7.594V126.397z"/>
	<path fill="#FFFFFF" d="M795.188,123.861c0-0.822,0.221-1.518,0.662-2.09c0.441-0.57,1.027-1.036,1.758-1.396
		c0.73-0.359,1.566-0.625,2.508-0.797c0.941-0.173,1.916-0.259,2.924-0.259v-0.521c0-0.455-0.039-0.842-0.117-1.163
		s-0.217-0.581-0.416-0.782c-0.199-0.2-0.467-0.348-0.803-0.44c-0.336-0.094-0.762-0.141-1.277-0.141
		c-0.438,0-0.861,0.032-1.271,0.097c-0.41,0.065-0.795,0.146-1.154,0.246c-0.359,0.098-0.688,0.203-0.984,0.316
		c-0.297,0.112-0.551,0.216-0.762,0.312h-0.012l-0.586-1.076c0.133-0.125,0.385-0.291,0.756-0.498s0.809-0.41,1.313-0.609
		s1.049-0.371,1.635-0.516s1.16-0.217,1.723-0.217c0.844,0,1.555,0.081,2.133,0.241s1.045,0.421,1.4,0.779
		c0.355,0.359,0.611,0.824,0.768,1.396s0.234,1.266,0.234,2.081v7.291h1.43v1.148c-0.148,0.04-0.326,0.082-0.533,0.129
		s-0.428,0.09-0.662,0.129s-0.471,0.074-0.709,0.105s-0.463,0.047-0.674,0.047c-0.227,0-0.418-0.012-0.574-0.035
		s-0.285-0.076-0.387-0.158s-0.176-0.203-0.223-0.363s-0.07-0.373-0.07-0.639v-0.563c-0.133,0.125-0.322,0.287-0.568,0.486
		s-0.539,0.393-0.879,0.58s-0.723,0.35-1.148,0.486s-0.885,0.205-1.377,0.205c-0.539,0-1.055-0.074-1.547-0.223
		c-0.492-0.149-0.924-0.378-1.295-0.687c-0.371-0.31-0.666-0.704-0.885-1.186S795.188,124.525,795.188,123.861z M798.106,123.526
		c0,0.43,0.057,0.795,0.17,1.096s0.27,0.547,0.469,0.738s0.438,0.33,0.715,0.416s0.576,0.129,0.896,0.129
		c0.18,0,0.385-0.027,0.615-0.082s0.467-0.131,0.709-0.229s0.48-0.211,0.715-0.34s0.449-0.268,0.645-0.416v-4.207
		c-0.906,0-1.672,0.08-2.297,0.24s-1.133,0.371-1.523,0.633s-0.674,0.568-0.85,0.92S798.106,123.143,798.106,123.526z"/>
	<path fill="#FFFFFF" d="M808.313,126.425l1.535-0.193v-9.514l-1.676-0.453v-1.481l3.469-0.469h0.059l0.551,0.457v0.995
		l-0.012,0.565c0.258-0.243,0.574-0.483,0.949-0.724c0.375-0.238,0.779-0.453,1.213-0.645c0.434-0.189,0.883-0.344,1.348-0.461
		c0.465-0.118,0.916-0.177,1.354-0.177c0.766,0,1.396,0.104,1.893,0.31c0.496,0.207,0.889,0.53,1.178,0.971
		c0.289,0.439,0.49,1.002,0.604,1.688s0.17,1.502,0.17,2.451v6.486l1.688,0.193v1.237h-5.883v-1.237l1.5-0.193v-6.475
		c0-0.617-0.029-1.152-0.088-1.606s-0.172-0.829-0.34-1.127s-0.406-0.519-0.715-0.663c-0.309-0.146-0.713-0.218-1.213-0.218
		c-0.297,0-0.6,0.036-0.908,0.108s-0.609,0.17-0.902,0.29s-0.572,0.257-0.838,0.41s-0.504,0.31-0.715,0.471v8.81l1.617,0.193v1.237
		h-5.836V126.425z"/>
	<path fill="#FFFFFF" d="M824.097,123.73h1.652l0.469,1.694c0.07,0.112,0.191,0.224,0.363,0.335s0.375,0.212,0.609,0.301
		c0.234,0.09,0.494,0.16,0.779,0.212s0.576,0.078,0.873,0.078c0.469,0,0.861-0.045,1.178-0.135c0.316-0.089,0.568-0.215,0.756-0.376
		c0.188-0.16,0.32-0.35,0.398-0.566s0.117-0.452,0.117-0.706c0-0.299-0.074-0.566-0.223-0.802s-0.371-0.46-0.668-0.674
		c-0.297-0.213-0.666-0.422-1.107-0.627c-0.441-0.206-0.959-0.421-1.553-0.646c-0.602-0.224-1.127-0.468-1.576-0.729
		s-0.822-0.557-1.119-0.886s-0.518-0.695-0.662-1.099c-0.145-0.404-0.217-0.863-0.217-1.38s0.123-0.981,0.369-1.396
		s0.588-0.772,1.025-1.071s0.955-0.529,1.553-0.689s1.248-0.241,1.951-0.241c0.508,0,0.973,0.031,1.395,0.095
		c0.422,0.063,0.797,0.136,1.125,0.219c0.328,0.082,0.613,0.165,0.855,0.248c0.242,0.082,0.441,0.143,0.598,0.183v2.849h-1.5
		l-0.504-1.564c-0.047-0.09-0.133-0.178-0.258-0.264c-0.125-0.085-0.279-0.162-0.463-0.229s-0.391-0.121-0.621-0.162
		s-0.471-0.062-0.721-0.062c-0.383,0-0.719,0.04-1.008,0.118s-0.531,0.187-0.727,0.324c-0.195,0.139-0.342,0.307-0.439,0.505
		s-0.146,0.413-0.146,0.644c0,0.374,0.088,0.686,0.264,0.936c0.176,0.251,0.408,0.472,0.697,0.662s0.619,0.36,0.99,0.51
		s0.756,0.307,1.154,0.471c0.523,0.217,1.033,0.444,1.529,0.684c0.496,0.238,0.934,0.516,1.313,0.829s0.684,0.678,0.914,1.093
		c0.23,0.414,0.346,0.913,0.346,1.496c0,0.56-0.117,1.071-0.352,1.535c-0.234,0.463-0.572,0.86-1.014,1.193
		c-0.441,0.332-0.98,0.588-1.617,0.768s-1.361,0.269-2.174,0.269c-0.445,0-0.898-0.035-1.359-0.105s-0.898-0.158-1.313-0.264
		s-0.789-0.215-1.125-0.328c-0.336-0.112-0.605-0.217-0.809-0.311V123.73z"/>
	<path fill="#FFFFFF" d="M836.917,131.892v-15.145l-1.676-0.439v-1.466l3.457-0.469h0.059l0.527,0.457v1.4
		c0.195-0.227,0.428-0.452,0.697-0.679s0.574-0.431,0.914-0.613c0.34-0.182,0.715-0.329,1.125-0.442s0.854-0.17,1.33-0.17
		c0.68,0,1.336,0.12,1.969,0.358c0.633,0.239,1.189,0.611,1.67,1.115s0.865,1.152,1.154,1.944s0.434,1.741,0.434,2.847
		c0,0.972-0.158,1.887-0.475,2.746s-0.77,1.609-1.359,2.252s-1.307,1.151-2.15,1.524c-0.844,0.374-1.797,0.561-2.859,0.561
		c-0.188,0-0.383-0.008-0.586-0.023s-0.402-0.037-0.598-0.064s-0.383-0.059-0.563-0.094s-0.34-0.071-0.48-0.111l0.07,2.089v2.434
		l2.402,0.266v1.306h-6.809v-1.306L836.917,131.892z M839.577,125.646c0.055,0.088,0.15,0.172,0.287,0.253s0.303,0.153,0.498,0.22
		s0.418,0.119,0.668,0.159s0.512,0.061,0.785,0.061c0.539,0,1.041-0.1,1.506-0.299c0.465-0.198,0.873-0.513,1.225-0.94
		c0.352-0.427,0.629-0.98,0.832-1.658s0.313-1.496,0.328-2.455c0.008-0.855-0.076-1.591-0.252-2.207
		c-0.176-0.615-0.42-1.12-0.732-1.515c-0.313-0.394-0.68-0.684-1.102-0.868c-0.422-0.184-0.875-0.276-1.359-0.276
		c-0.305,0-0.592,0.035-0.861,0.104c-0.27,0.07-0.52,0.16-0.75,0.27s-0.438,0.231-0.621,0.367c-0.184,0.137-0.334,0.268-0.451,0.392
		V125.646z"/>
	<path fill="#FFFFFF" d="M850.029,123.861c0-0.822,0.221-1.518,0.662-2.09c0.441-0.57,1.027-1.036,1.758-1.396
		c0.73-0.359,1.566-0.625,2.508-0.797c0.941-0.173,1.916-0.259,2.924-0.259v-0.521c0-0.455-0.039-0.842-0.117-1.163
		s-0.217-0.581-0.416-0.782c-0.199-0.2-0.467-0.348-0.803-0.44c-0.336-0.094-0.762-0.141-1.277-0.141
		c-0.438,0-0.861,0.032-1.271,0.097c-0.41,0.065-0.795,0.146-1.154,0.246c-0.359,0.098-0.688,0.203-0.984,0.316
		c-0.297,0.112-0.551,0.216-0.762,0.312h-0.012l-0.586-1.076c0.133-0.125,0.385-0.291,0.756-0.498s0.809-0.41,1.313-0.609
		s1.049-0.371,1.635-0.516s1.16-0.217,1.723-0.217c0.844,0,1.555,0.081,2.133,0.241s1.045,0.421,1.4,0.779
		c0.355,0.359,0.611,0.824,0.768,1.396s0.234,1.266,0.234,2.081v7.291h1.43v1.148c-0.148,0.04-0.326,0.082-0.533,0.129
		s-0.428,0.09-0.662,0.129s-0.471,0.074-0.709,0.105s-0.463,0.047-0.674,0.047c-0.227,0-0.418-0.012-0.574-0.035
		s-0.285-0.076-0.387-0.158s-0.176-0.203-0.223-0.363s-0.07-0.373-0.07-0.639v-0.563c-0.133,0.125-0.322,0.287-0.568,0.486
		s-0.539,0.393-0.879,0.58s-0.723,0.35-1.148,0.486s-0.885,0.205-1.377,0.205c-0.539,0-1.055-0.074-1.547-0.223
		c-0.492-0.149-0.924-0.378-1.295-0.687c-0.371-0.31-0.666-0.704-0.885-1.186S850.029,124.525,850.029,123.861z M852.947,123.526
		c0,0.43,0.057,0.795,0.17,1.096s0.27,0.547,0.469,0.738s0.438,0.33,0.715,0.416s0.576,0.129,0.896,0.129
		c0.18,0,0.385-0.027,0.615-0.082s0.467-0.131,0.709-0.229s0.48-0.211,0.715-0.34s0.449-0.268,0.645-0.416v-4.207
		c-0.906,0-1.672,0.08-2.297,0.24s-1.133,0.371-1.523,0.633s-0.674,0.568-0.85,0.92S852.947,123.143,852.947,123.526z"/>
	<path fill="#FFFFFF" d="M863.048,126.397l1.84-0.183v-9.497l-1.664-0.469v-1.406l3.352-0.469h0.059l0.563,0.457v0.77l-0.023,1.589
		h0.023c0.039-0.08,0.119-0.208,0.24-0.382s0.277-0.366,0.469-0.576s0.416-0.429,0.674-0.655s0.545-0.432,0.861-0.618
		s0.658-0.338,1.025-0.455s0.762-0.176,1.184-0.176c0.18,0,0.332,0.013,0.457,0.036c0.125,0.024,0.23,0.057,0.316,0.097v2.964
		c-0.133-0.1-0.32-0.189-0.563-0.27s-0.516-0.12-0.82-0.12c-0.438,0-0.834,0.03-1.189,0.093c-0.355,0.062-0.676,0.144-0.961,0.246
		c-0.285,0.104-0.537,0.218-0.756,0.346c-0.219,0.127-0.41,0.252-0.574,0.375v8.21h3.082v1.359h-7.594V126.397z"/>
	<path fill="#FFFFFF" d="M873.478,121.017c0-1.001,0.156-1.912,0.469-2.734s0.748-1.525,1.307-2.112s1.223-1.04,1.992-1.362
		c0.77-0.32,1.611-0.481,2.525-0.481c1.5,0,2.66,0.371,3.48,1.114c0.82,0.742,1.258,1.828,1.313,3.256
		c0.008,0.457,0.002,0.856-0.018,1.199s-0.061,0.643-0.123,0.899h-8.121c0.023,0.891,0.146,1.656,0.369,2.297
		s0.512,1.166,0.867,1.576s0.77,0.713,1.242,0.908s0.975,0.293,1.506,0.293c0.336,0,0.676-0.031,1.02-0.094s0.674-0.146,0.99-0.252
		s0.609-0.223,0.879-0.352s0.494-0.264,0.674-0.404l0.492,1.125c-0.219,0.228-0.504,0.447-0.855,0.662s-0.74,0.404-1.166,0.568
		s-0.881,0.297-1.365,0.398s-0.973,0.152-1.465,0.152c-1.008,0-1.889-0.163-2.643-0.487c-0.754-0.325-1.381-0.783-1.881-1.373
		s-0.873-1.293-1.119-2.107S873.478,121.996,873.478,121.017z M881.751,119.436c0.016-0.134,0.027-0.28,0.035-0.438
		s0.012-0.3,0.012-0.428c0-0.389-0.047-0.754-0.141-1.097c-0.094-0.342-0.24-0.642-0.439-0.899
		c-0.199-0.259-0.459-0.461-0.779-0.608c-0.32-0.148-0.715-0.222-1.184-0.222c-0.398,0-0.77,0.059-1.113,0.177
		c-0.344,0.117-0.646,0.318-0.908,0.604c-0.262,0.284-0.473,0.663-0.633,1.136c-0.16,0.474-0.26,1.064-0.299,1.775H881.751z"/>
	<path fill="#FFFFFF" d="M886.18,126.425l1.535-0.193v-9.514l-1.676-0.453v-1.481l3.469-0.469h0.059l0.551,0.457v0.995l-0.012,0.565
		c0.258-0.243,0.574-0.483,0.949-0.724c0.375-0.238,0.779-0.453,1.213-0.645c0.434-0.189,0.883-0.344,1.348-0.461
		c0.465-0.118,0.916-0.177,1.354-0.177c0.766,0,1.396,0.104,1.893,0.31c0.496,0.207,0.889,0.53,1.178,0.971
		c0.289,0.439,0.49,1.002,0.604,1.688s0.17,1.502,0.17,2.451v6.486l1.688,0.193v1.237h-5.883v-1.237l1.5-0.193v-6.475
		c0-0.617-0.029-1.152-0.088-1.606s-0.172-0.829-0.34-1.127s-0.406-0.519-0.715-0.663c-0.309-0.146-0.713-0.218-1.213-0.218
		c-0.297,0-0.6,0.036-0.908,0.108s-0.609,0.17-0.902,0.29s-0.572,0.257-0.838,0.41s-0.504,0.31-0.715,0.471v8.81l1.617,0.193v1.237
		h-5.836V126.425z"/>
	<path fill="#FFFFFF" d="M901.296,126.57l6.961-9.174l1.535-1.534h-5.449l-0.457,2.313h-1.605v-3.837h10.113l0.492,1.066
		l-6.855,9.228l-1.535,1.483h6.047l0.891-2.63l1.523,0.173l-0.352,4.004h-10.781L901.296,126.57z"/>
	<path fill="#FFFFFF" d="M920.982,126.385l1.898-0.199v-9.82l-1.699-0.48v-1.383l3.727-0.48h0.059l0.598,0.457v11.707l1.875,0.199
		v1.277h-6.457V126.385z M923.227,111.532c-0.191-0.082-0.354-0.195-0.486-0.34s-0.236-0.314-0.311-0.51s-0.111-0.406-0.111-0.633
		c0-0.25,0.037-0.488,0.111-0.715s0.186-0.428,0.334-0.604s0.332-0.316,0.551-0.422s0.473-0.158,0.762-0.158h0.012
		c0.258,0,0.486,0.045,0.686,0.135s0.367,0.211,0.504,0.363s0.24,0.326,0.311,0.521s0.105,0.398,0.105,0.609
		c0,0.258-0.037,0.502-0.111,0.732s-0.188,0.43-0.34,0.598s-0.344,0.301-0.574,0.398s-0.498,0.146-0.803,0.146h-0.012
		C923.627,111.655,923.418,111.614,923.227,111.532z"/>
	<path fill="#FFFFFF" d="M928.763,126.425l1.535-0.193v-9.514l-1.676-0.453v-1.481l3.469-0.469h0.059l0.551,0.457v0.995
		l-0.012,0.565c0.258-0.243,0.574-0.483,0.949-0.724c0.375-0.238,0.779-0.453,1.213-0.645c0.434-0.189,0.883-0.344,1.348-0.461
		c0.465-0.118,0.916-0.177,1.354-0.177c0.766,0,1.396,0.104,1.893,0.31c0.496,0.207,0.889,0.53,1.178,0.971
		c0.289,0.439,0.49,1.002,0.604,1.688s0.17,1.502,0.17,2.451v6.486l1.688,0.193v1.237H937.2v-1.237l1.5-0.193v-6.475
		c0-0.617-0.029-1.152-0.088-1.606s-0.172-0.829-0.34-1.127s-0.406-0.519-0.715-0.663c-0.309-0.146-0.713-0.218-1.213-0.218
		c-0.297,0-0.6,0.036-0.908,0.108s-0.609,0.17-0.902,0.29s-0.572,0.257-0.838,0.41s-0.504,0.31-0.715,0.471v8.81l1.617,0.193v1.237
		h-5.836V126.425z"/>
	<path fill="#FFFFFF" d="M950.992,126.385l1.934-0.27v-14.684l-1.934-0.305v-1.301h4.629l7.887,11.52l1.242,2.32V111.42
		l-2.098-0.293v-1.301h5.813v1.301l-1.945,0.305v16.23h-1.922l-8.074-11.754l-1.828-3.188v13.383l2.238,0.281v1.277h-5.941V126.385z
		"/>
	<path fill="#FFFFFF" d="M969.437,120.995c0-1.067,0.182-2.017,0.545-2.847c0.363-0.829,0.842-1.525,1.436-2.09
		s1.271-0.994,2.033-1.289s1.541-0.442,2.338-0.442c1.055,0,1.965,0.172,2.73,0.516s1.395,0.814,1.887,1.412
		s0.857,1.304,1.096,2.118s0.357,1.692,0.357,2.634c0,1.083-0.18,2.04-0.539,2.868c-0.359,0.83-0.836,1.527-1.43,2.091
		s-1.273,0.989-2.039,1.277s-1.551,0.432-2.355,0.432c-1.055,0-1.963-0.172-2.725-0.516s-1.389-0.814-1.881-1.412
		s-0.857-1.304-1.096-2.118S969.437,121.937,969.437,120.995z M975.647,126.221c2.164,0,3.246-1.672,3.246-5.016
		c0-0.775-0.059-1.493-0.176-2.153c-0.117-0.661-0.305-1.234-0.563-1.723c-0.258-0.486-0.592-0.867-1.002-1.141
		c-0.41-0.272-0.912-0.409-1.506-0.409c-1.07,0-1.881,0.417-2.432,1.251s-0.826,2.09-0.826,3.765c0,0.775,0.061,1.495,0.182,2.159
		s0.311,1.238,0.568,1.722s0.594,0.862,1.008,1.136S975.062,126.221,975.647,126.221z"/>
	<path fill="#FFFFFF" d="M983.347,126.397l1.84-0.183v-9.497l-1.664-0.469v-1.406l3.352-0.469h0.059l0.563,0.457v0.77l-0.023,1.589
		h0.023c0.039-0.08,0.119-0.208,0.24-0.382s0.277-0.366,0.469-0.576s0.416-0.429,0.674-0.655s0.545-0.432,0.861-0.618
		s0.658-0.338,1.025-0.455s0.762-0.176,1.184-0.176c0.18,0,0.332,0.013,0.457,0.036c0.125,0.024,0.23,0.057,0.316,0.097v2.964
		c-0.133-0.1-0.32-0.189-0.563-0.27s-0.516-0.12-0.82-0.12c-0.438,0-0.834,0.03-1.189,0.093c-0.355,0.062-0.676,0.144-0.961,0.246
		c-0.285,0.104-0.537,0.218-0.756,0.346c-0.219,0.127-0.41,0.252-0.574,0.375v8.21h3.082v1.359h-7.594V126.397z"/>
	<path fill="#FFFFFF" d="M999.002,127.674c-0.695,0-1.357-0.127-1.986-0.381s-1.184-0.641-1.664-1.16s-0.863-1.177-1.148-1.973
		s-0.428-1.735-0.428-2.818c0-0.972,0.156-1.883,0.469-2.734c0.313-0.853,0.766-1.595,1.359-2.23
		c0.594-0.635,1.318-1.136,2.174-1.501c0.855-0.367,1.826-0.55,2.912-0.55c0.383,0,0.752,0.021,1.107,0.064s0.693,0.096,1.014,0.158
		v-4.371l-2.355-0.234v-1.137l4.371-0.469h0.07l0.574,0.422v17.285h1.383v1.219c-0.328,0.087-0.717,0.176-1.166,0.27
		s-0.92,0.141-1.412,0.141c-0.211,0-0.395-0.014-0.551-0.04c-0.156-0.027-0.287-0.084-0.393-0.17
		c-0.105-0.085-0.184-0.207-0.234-0.366s-0.076-0.366-0.076-0.622v-0.617c-0.211,0.225-0.453,0.445-0.727,0.663
		s-0.578,0.411-0.914,0.582s-0.703,0.309-1.102,0.413C999.881,127.623,999.455,127.674,999.002,127.674z M1000.08,126.045
		c0.313,0,0.607-0.042,0.885-0.126c0.277-0.083,0.533-0.189,0.768-0.319s0.441-0.271,0.621-0.427
		c0.18-0.154,0.332-0.307,0.457-0.457v-8.262c-0.063-0.098-0.166-0.191-0.311-0.281s-0.32-0.169-0.527-0.238
		c-0.207-0.068-0.434-0.124-0.68-0.164c-0.246-0.041-0.502-0.062-0.768-0.062c-0.531,0-1.029,0.096-1.494,0.287
		c-0.465,0.19-0.871,0.499-1.219,0.922c-0.348,0.424-0.623,0.975-0.826,1.653s-0.313,1.506-0.328,2.48
		c-0.016,0.877,0.064,1.631,0.24,2.26c0.176,0.631,0.418,1.147,0.727,1.553c0.309,0.404,0.674,0.703,1.096,0.895
		C999.143,125.95,999.596,126.045,1000.08,126.045z"/>
	<path fill="#FFFFFF" d="M1008.247,126.397l1.84-0.183v-9.497l-1.664-0.469v-1.406l3.352-0.469h0.059l0.563,0.457v0.77l-0.023,1.589
		h0.023c0.039-0.08,0.119-0.208,0.24-0.382s0.277-0.366,0.469-0.576s0.416-0.429,0.674-0.655s0.545-0.432,0.861-0.618
		s0.658-0.338,1.025-0.455s0.762-0.176,1.184-0.176c0.18,0,0.332,0.013,0.457,0.036c0.125,0.024,0.23,0.057,0.316,0.097v2.964
		c-0.133-0.1-0.32-0.189-0.563-0.27s-0.516-0.12-0.82-0.12c-0.438,0-0.834,0.03-1.189,0.093c-0.355,0.062-0.676,0.144-0.961,0.246
		c-0.285,0.104-0.537,0.218-0.756,0.346c-0.219,0.127-0.41,0.252-0.574,0.375v8.21h3.082v1.359h-7.594V126.397z"/>
	<path fill="#FFFFFF" d="M1018.724,126.425l1.406-0.182v-16.112l-1.934-0.234v-1.113l3.973-0.504h0.059l0.563,0.398l0.012,5.491
		l-0.105,2.118c0.211-0.195,0.482-0.406,0.814-0.634c0.332-0.227,0.703-0.44,1.113-0.639c0.41-0.199,0.854-0.363,1.33-0.494
		c0.477-0.129,0.969-0.194,1.477-0.194c0.758,0,1.385,0.105,1.881,0.315c0.496,0.211,0.889,0.538,1.178,0.982
		c0.289,0.443,0.492,1.006,0.609,1.688c0.117,0.681,0.176,1.492,0.176,2.434v6.486l1.688,0.193v1.237h-5.895v-1.226l1.535-0.193
		v-6.486c0-0.609-0.029-1.142-0.088-1.596c-0.059-0.453-0.174-0.829-0.346-1.127c-0.172-0.297-0.414-0.52-0.727-0.668
		c-0.313-0.149-0.723-0.224-1.23-0.224c-0.297,0-0.598,0.032-0.902,0.097s-0.604,0.153-0.896,0.266
		c-0.293,0.113-0.576,0.246-0.85,0.398c-0.273,0.154-0.523,0.318-0.75,0.496v8.832l1.664,0.193v1.237h-5.754V126.425z"/>
	<path fill="#FFFFFF" d="M1034.039,121.017c0-1.001,0.156-1.912,0.469-2.734s0.748-1.525,1.307-2.112s1.223-1.04,1.992-1.362
		c0.77-0.32,1.611-0.481,2.525-0.481c1.5,0,2.66,0.371,3.48,1.114c0.82,0.742,1.258,1.828,1.313,3.256
		c0.008,0.457,0.002,0.856-0.018,1.199s-0.061,0.643-0.123,0.899h-8.121c0.023,0.891,0.146,1.656,0.369,2.297
		s0.512,1.166,0.867,1.576s0.77,0.713,1.242,0.908s0.975,0.293,1.506,0.293c0.336,0,0.676-0.031,1.02-0.094s0.674-0.146,0.99-0.252
		s0.609-0.223,0.879-0.352s0.494-0.264,0.674-0.404l0.492,1.125c-0.219,0.228-0.504,0.447-0.855,0.662s-0.74,0.404-1.166,0.568
		s-0.881,0.297-1.365,0.398s-0.973,0.152-1.465,0.152c-1.008,0-1.889-0.163-2.643-0.487c-0.754-0.325-1.381-0.783-1.881-1.373
		s-0.873-1.293-1.119-2.107S1034.039,121.996,1034.039,121.017z M1042.313,119.436c0.016-0.134,0.027-0.28,0.035-0.438
		s0.012-0.3,0.012-0.428c0-0.389-0.047-0.754-0.141-1.097c-0.094-0.342-0.24-0.642-0.439-0.899
		c-0.199-0.259-0.459-0.461-0.779-0.608c-0.32-0.148-0.715-0.222-1.184-0.222c-0.398,0-0.77,0.059-1.113,0.177
		c-0.344,0.117-0.646,0.318-0.908,0.604c-0.262,0.284-0.473,0.663-0.633,1.136c-0.16,0.474-0.26,1.064-0.299,1.775H1042.313z"/>
	<path fill="#FFFFFF" d="M1046.46,126.385l1.898-0.199v-9.82l-1.699-0.48v-1.383l3.727-0.48h0.059l0.598,0.457v11.707l1.875,0.199
		v1.277h-6.457V126.385z M1048.704,111.532c-0.191-0.082-0.354-0.195-0.486-0.34s-0.236-0.314-0.311-0.51s-0.111-0.406-0.111-0.633
		c0-0.25,0.037-0.488,0.111-0.715s0.186-0.428,0.334-0.604s0.332-0.316,0.551-0.422s0.473-0.158,0.762-0.158h0.012
		c0.258,0,0.486,0.045,0.686,0.135s0.367,0.211,0.504,0.363s0.24,0.326,0.311,0.521s0.105,0.398,0.105,0.609
		c0,0.258-0.037,0.502-0.111,0.732s-0.188,0.43-0.34,0.598s-0.344,0.301-0.574,0.398s-0.498,0.146-0.803,0.146h-0.012
		C1049.104,111.655,1048.896,111.614,1048.704,111.532z"/>
	<path fill="#FFFFFF" d="M1054.241,126.425l1.535-0.193v-9.514l-1.676-0.453v-1.481l3.469-0.469h0.059l0.551,0.457v0.995
		l-0.012,0.565c0.258-0.243,0.574-0.483,0.949-0.724c0.375-0.238,0.779-0.453,1.213-0.645c0.434-0.189,0.883-0.344,1.348-0.461
		c0.465-0.118,0.916-0.177,1.354-0.177c0.766,0,1.396,0.104,1.893,0.31c0.496,0.207,0.889,0.53,1.178,0.971
		c0.289,0.439,0.49,1.002,0.604,1.688s0.17,1.502,0.17,2.451v6.486l1.688,0.193v1.237h-5.883v-1.237l1.5-0.193v-6.475
		c0-0.617-0.029-1.152-0.088-1.606s-0.172-0.829-0.34-1.127s-0.406-0.519-0.715-0.663c-0.309-0.146-0.713-0.218-1.213-0.218
		c-0.297,0-0.6,0.036-0.908,0.108s-0.609,0.17-0.902,0.29s-0.572,0.257-0.838,0.41s-0.504,0.31-0.715,0.471v8.81l1.617,0.193v1.237
		h-5.836V126.425z"/>
	<path fill="#FFFFFF" d="M1071.326,119.495h9.961v1.898h-9.961V119.495z"/>
	<path fill="#FFFFFF" d="M1084.509,111.582l-1.57-0.311v-1.444h6.551v1.444l-2.145,0.311l3.27,10.913l0.609,3.126l0.715-3.126
		l2.684-8.894l-0.656-2.03l-1.652-0.3v-1.444h6.773v1.444l-2.25,0.3l3.211,10.924l0.715,3.392l0.621-3.392l3.059-10.913
		l-2.367-0.311v-1.444h5.836v1.444l-1.559,0.311l-4.84,16.081h-2.531l-3.539-11.489l-3.457,11.489h-2.414L1084.509,111.582z"/>
	<path fill="#FFFFFF" d="M1107.899,121.017c0-1.001,0.156-1.912,0.469-2.734s0.748-1.525,1.307-2.112s1.223-1.04,1.992-1.362
		c0.77-0.32,1.611-0.481,2.525-0.481c1.5,0,2.66,0.371,3.48,1.114c0.82,0.742,1.258,1.828,1.313,3.256
		c0.008,0.457,0.002,0.856-0.018,1.199s-0.061,0.643-0.123,0.899h-8.121c0.023,0.891,0.146,1.656,0.369,2.297
		s0.512,1.166,0.867,1.576s0.77,0.713,1.242,0.908s0.975,0.293,1.506,0.293c0.336,0,0.676-0.031,1.02-0.094s0.674-0.146,0.99-0.252
		s0.609-0.223,0.879-0.352s0.494-0.264,0.674-0.404l0.492,1.125c-0.219,0.228-0.504,0.447-0.855,0.662s-0.74,0.404-1.166,0.568
		s-0.881,0.297-1.365,0.398s-0.973,0.152-1.465,0.152c-1.008,0-1.889-0.163-2.643-0.487c-0.754-0.325-1.381-0.783-1.881-1.373
		s-0.873-1.293-1.119-2.107S1107.899,121.996,1107.899,121.017z M1116.173,119.436c0.016-0.134,0.027-0.28,0.035-0.438
		s0.012-0.3,0.012-0.428c0-0.389-0.047-0.754-0.141-1.097c-0.094-0.342-0.24-0.642-0.439-0.899
		c-0.199-0.259-0.459-0.461-0.779-0.608c-0.32-0.148-0.715-0.222-1.184-0.222c-0.398,0-0.77,0.059-1.113,0.177
		c-0.344,0.117-0.646,0.318-0.908,0.604c-0.262,0.284-0.473,0.663-0.633,1.136c-0.16,0.474-0.26,1.064-0.299,1.775H1116.173z"/>
	<path fill="#FFFFFF" d="M1120.801,123.73h1.652l0.469,1.694c0.07,0.112,0.191,0.224,0.363,0.335s0.375,0.212,0.609,0.301
		c0.234,0.09,0.494,0.16,0.779,0.212s0.576,0.078,0.873,0.078c0.469,0,0.861-0.045,1.178-0.135c0.316-0.089,0.568-0.215,0.756-0.376
		c0.188-0.16,0.32-0.35,0.398-0.566s0.117-0.452,0.117-0.706c0-0.299-0.074-0.566-0.223-0.802s-0.371-0.46-0.668-0.674
		c-0.297-0.213-0.666-0.422-1.107-0.627c-0.441-0.206-0.959-0.421-1.553-0.646c-0.602-0.224-1.127-0.468-1.576-0.729
		s-0.822-0.557-1.119-0.886s-0.518-0.695-0.662-1.099c-0.145-0.404-0.217-0.863-0.217-1.38s0.123-0.981,0.369-1.396
		s0.588-0.772,1.025-1.071s0.955-0.529,1.553-0.689s1.248-0.241,1.951-0.241c0.508,0,0.973,0.031,1.395,0.095
		c0.422,0.063,0.797,0.136,1.125,0.219c0.328,0.082,0.613,0.165,0.855,0.248c0.242,0.082,0.441,0.143,0.598,0.183v2.849h-1.5
		l-0.504-1.564c-0.047-0.09-0.133-0.178-0.258-0.264c-0.125-0.085-0.279-0.162-0.463-0.229s-0.391-0.121-0.621-0.162
		s-0.471-0.062-0.721-0.062c-0.383,0-0.719,0.04-1.008,0.118s-0.531,0.187-0.727,0.324c-0.195,0.139-0.342,0.307-0.439,0.505
		s-0.146,0.413-0.146,0.644c0,0.374,0.088,0.686,0.264,0.936c0.176,0.251,0.408,0.472,0.697,0.662s0.619,0.36,0.99,0.51
		s0.756,0.307,1.154,0.471c0.523,0.217,1.033,0.444,1.529,0.684c0.496,0.238,0.934,0.516,1.313,0.829s0.684,0.678,0.914,1.093
		c0.23,0.414,0.346,0.913,0.346,1.496c0,0.56-0.117,1.071-0.352,1.535c-0.234,0.463-0.572,0.86-1.014,1.193
		c-0.441,0.332-0.98,0.588-1.617,0.768s-1.361,0.269-2.174,0.269c-0.445,0-0.898-0.035-1.359-0.105s-0.898-0.158-1.313-0.264
		s-0.789-0.215-1.125-0.328c-0.336-0.112-0.605-0.217-0.809-0.311V123.73z"/>
	<path fill="#FFFFFF" d="M1133.562,116.014h-1.676v-1.113c0.102-0.024,0.217-0.06,0.346-0.106c0.129-0.045,0.258-0.091,0.387-0.137
		c0.129-0.045,0.246-0.091,0.352-0.137c0.105-0.045,0.182-0.084,0.229-0.118c0.133-0.099,0.25-0.226,0.352-0.38
		c0.102-0.152,0.195-0.35,0.281-0.591c0.063-0.149,0.137-0.351,0.223-0.604s0.17-0.515,0.252-0.784s0.158-0.528,0.229-0.777
		s0.121-0.443,0.152-0.585h1.523l0.023,3.656h3.938v1.676h-3.926v6.943c0,0.658,0.012,1.175,0.035,1.55s0.08,0.654,0.17,0.838
		s0.225,0.298,0.404,0.344s0.422,0.068,0.727,0.068h0.012c0.219,0,0.455-0.015,0.709-0.045s0.498-0.068,0.732-0.113
		c0.234-0.046,0.451-0.095,0.65-0.148c0.199-0.053,0.357-0.102,0.475-0.146h0.012l0.398,1.121c-0.18,0.145-0.426,0.29-0.738,0.438
		s-0.656,0.279-1.031,0.396c-0.375,0.118-0.762,0.217-1.16,0.296s-0.773,0.119-1.125,0.119h-0.023c-0.461,0-0.873-0.046-1.236-0.138
		s-0.67-0.244-0.92-0.459s-0.441-0.495-0.574-0.844c-0.133-0.348-0.199-0.774-0.199-1.279V116.014z"/>
	<path fill="#FFFFFF" d="M1141.39,126.397l1.98-0.223v-10.148h-2.238v-1.16l2.238-0.527v-1.048c0-0.721,0.16-1.393,0.48-2.018
		s0.744-1.17,1.271-1.633s1.125-0.827,1.793-1.092c0.668-0.266,1.35-0.397,2.045-0.397c0.391,0,0.689,0.021,0.896,0.064
		s0.377,0.084,0.51,0.123v2.591c-0.063-0.052-0.164-0.11-0.305-0.177s-0.309-0.13-0.504-0.188s-0.418-0.108-0.668-0.148
		c-0.25-0.041-0.516-0.062-0.797-0.062c-0.383,0-0.705,0.032-0.967,0.097c-0.262,0.063-0.473,0.176-0.633,0.336
		s-0.275,0.377-0.346,0.651s-0.105,0.625-0.105,1.053l0.012,1.848h3.223v1.688h-3.223v10.16l2.543,0.211v1.266h-7.207V126.397z"/>
	<path fill="#FFFFFF" d="M1150.518,123.861c0-0.822,0.221-1.518,0.662-2.09c0.441-0.57,1.027-1.036,1.758-1.396
		c0.73-0.359,1.566-0.625,2.508-0.797c0.941-0.173,1.916-0.259,2.924-0.259v-0.521c0-0.455-0.039-0.842-0.117-1.163
		s-0.217-0.581-0.416-0.782c-0.199-0.2-0.467-0.348-0.803-0.44c-0.336-0.094-0.762-0.141-1.277-0.141
		c-0.438,0-0.861,0.032-1.271,0.097c-0.41,0.065-0.795,0.146-1.154,0.246c-0.359,0.098-0.688,0.203-0.984,0.316
		c-0.297,0.112-0.551,0.216-0.762,0.312h-0.012l-0.586-1.076c0.133-0.125,0.385-0.291,0.756-0.498s0.809-0.41,1.313-0.609
		s1.049-0.371,1.635-0.516s1.16-0.217,1.723-0.217c0.844,0,1.555,0.081,2.133,0.241s1.045,0.421,1.4,0.779
		c0.355,0.359,0.611,0.824,0.768,1.396s0.234,1.266,0.234,2.081v7.291h1.43v1.148c-0.148,0.04-0.326,0.082-0.533,0.129
		s-0.428,0.09-0.662,0.129s-0.471,0.074-0.709,0.105s-0.463,0.047-0.674,0.047c-0.227,0-0.418-0.012-0.574-0.035
		s-0.285-0.076-0.387-0.158s-0.176-0.203-0.223-0.363s-0.07-0.373-0.07-0.639v-0.563c-0.133,0.125-0.322,0.287-0.568,0.486
		s-0.539,0.393-0.879,0.58s-0.723,0.35-1.148,0.486s-0.885,0.205-1.377,0.205c-0.539,0-1.055-0.074-1.547-0.223
		c-0.492-0.149-0.924-0.378-1.295-0.687c-0.371-0.31-0.666-0.704-0.885-1.186S1150.518,124.525,1150.518,123.861z M1153.436,123.526
		c0,0.43,0.057,0.795,0.17,1.096s0.27,0.547,0.469,0.738s0.438,0.33,0.715,0.416s0.576,0.129,0.896,0.129
		c0.18,0,0.385-0.027,0.615-0.082s0.467-0.131,0.709-0.229s0.48-0.211,0.715-0.34s0.449-0.268,0.645-0.416v-4.207
		c-0.906,0-1.672,0.08-2.297,0.24s-1.133,0.371-1.523,0.633s-0.674,0.568-0.85,0.92S1153.436,123.143,1153.436,123.526z"/>
	<path fill="#FFFFFF" d="M1163.302,126.385l1.898-0.199v-16.348l-1.922-0.234v-1.113l3.996-0.504h0.023l0.574,0.398v17.801
		l1.992,0.199v1.277h-6.563V126.385z"/>
	<path fill="#FFFFFF" d="M1170.978,121.017c0-1.001,0.156-1.912,0.469-2.734s0.748-1.525,1.307-2.112s1.223-1.04,1.992-1.362
		c0.77-0.32,1.611-0.481,2.525-0.481c1.5,0,2.66,0.371,3.48,1.114c0.82,0.742,1.258,1.828,1.313,3.256
		c0.008,0.457,0.002,0.856-0.018,1.199s-0.061,0.643-0.123,0.899h-8.121c0.023,0.891,0.146,1.656,0.369,2.297
		s0.512,1.166,0.867,1.576s0.77,0.713,1.242,0.908s0.975,0.293,1.506,0.293c0.336,0,0.676-0.031,1.02-0.094s0.674-0.146,0.99-0.252
		s0.609-0.223,0.879-0.352s0.494-0.264,0.674-0.404l0.492,1.125c-0.219,0.228-0.504,0.447-0.855,0.662s-0.74,0.404-1.166,0.568
		s-0.881,0.297-1.365,0.398s-0.973,0.152-1.465,0.152c-1.008,0-1.889-0.163-2.643-0.487c-0.754-0.325-1.381-0.783-1.881-1.373
		s-0.873-1.293-1.119-2.107S1170.978,121.996,1170.978,121.017z M1179.251,119.436c0.016-0.134,0.027-0.28,0.035-0.438
		s0.012-0.3,0.012-0.428c0-0.389-0.047-0.754-0.141-1.097c-0.094-0.342-0.24-0.642-0.439-0.899
		c-0.199-0.259-0.459-0.461-0.779-0.608c-0.32-0.148-0.715-0.222-1.184-0.222c-0.398,0-0.77,0.059-1.113,0.177
		c-0.344,0.117-0.646,0.318-0.908,0.604c-0.262,0.284-0.473,0.663-0.633,1.136c-0.16,0.474-0.26,1.064-0.299,1.775H1179.251z"/>
	<path fill="#FFFFFF" d="M1183.68,126.425l1.535-0.193v-9.514l-1.676-0.453v-1.481l3.469-0.469h0.059l0.551,0.457v0.995
		l-0.012,0.565c0.258-0.243,0.574-0.483,0.949-0.724c0.375-0.238,0.779-0.453,1.213-0.645c0.434-0.189,0.883-0.344,1.348-0.461
		c0.465-0.118,0.916-0.177,1.354-0.177c0.766,0,1.396,0.104,1.893,0.31c0.496,0.207,0.889,0.53,1.178,0.971
		c0.289,0.439,0.49,1.002,0.604,1.688s0.17,1.502,0.17,2.451v6.486l1.688,0.193v1.237h-5.883v-1.237l1.5-0.193v-6.475
		c0-0.617-0.029-1.152-0.088-1.606s-0.172-0.829-0.34-1.127s-0.406-0.519-0.715-0.663c-0.309-0.146-0.713-0.218-1.213-0.218
		c-0.297,0-0.6,0.036-0.908,0.108s-0.609,0.17-0.902,0.29s-0.572,0.257-0.838,0.41s-0.504,0.31-0.715,0.471v8.81l1.617,0.193v1.237
		h-5.836V126.425z"/>
</g>
<g>
	<rect x="-362.5" y="-277.667" fill="#FFFFFF" width="21" height="80"/>
	<rect x="-362.001" y="-277.001" fill="#DD5A00" width="16.001" height="16"/>
	<rect x="-362.001" y="-255.668" fill="#00A0DB" width="16.001" height="16.001"/>
	<rect x="-362" y="-213" fill="#689F2A" width="16" height="16"/>
	<rect x="-362.002" y="-234.333" fill="#9D00DB" width="16.001" height="16"/>
</g>
<rect x="22.526" y="109.384" fill="#689F2A" width="19.198" height="19.199"/>
<rect x="22.526" y="82.496" fill="#9D00DB" width="19.198" height="19.199"/>
<rect x="22.526" y="56.033" fill="#00A0DB" width="19.198" height="19.199"/>
<rect x="22.526" y="28.717" fill="#DD5A00" width="19.198" height="19.199"/>
<rect x="1400.5" y="208.333" width="7" height="1"/>
</svg>
